<svg width="292" height="50" viewBox="0 0 292 50" fill="none" xmlns="http://www.w3.org/2000/svg">
<path d="M20.3447 20.9668C20.3447 21.3198 20.3577 21.6733 20.3838 22.0264C20.4099 22.3794 20.4358 22.7445 20.4619 23.1211C20.5925 24.5098 20.8017 25.7105 21.0889 26.7227C21.376 27.7346 21.7417 28.5705 22.1855 29.2295C22.6554 29.8648 23.2166 30.3357 23.8691 30.6416C24.5218 30.9476 25.2791 31.1006 26.1406 31.1006C26.6803 31.1006 27.2 31.0325 27.7012 30.9033L26.791 33.4873C26.3389 33.3667 25.8773 33.2592 25.4062 33.166C24.3719 32.9551 23.305 32.8496 22.2061 32.8496C20.881 32.8496 19.7177 33.0372 18.7158 33.4121C17.7461 33.7871 16.986 34.3028 16.4365 34.959C15.8872 35.6151 15.6123 36.3771 15.6123 37.2441C15.6124 37.9471 15.8551 38.5568 16.3398 39.0723C16.8246 39.5877 17.5035 39.9737 18.376 40.2314C19.2487 40.5127 20.267 40.6533 21.4307 40.6533C22.8529 40.6533 24.1624 40.4189 25.3584 39.9502C26.5864 39.5049 27.6693 38.8024 28.6064 37.8418C28.698 37.7457 28.7865 37.6459 28.874 37.5449C29.8263 37.9052 30.8193 38.2751 31.8545 38.6504C33.1797 39.1191 34.5699 39.5176 36.0244 39.8457C37.4788 40.1504 39.0304 40.3017 40.6787 40.3018C42.1025 40.3018 43.3969 40.1805 44.5615 39.9404C40.0214 45.861 32.8772 49.6797 24.8398 49.6797C13.1675 49.6797 3.37723 41.6281 0.71582 30.7764C1.27409 30.6231 1.85173 30.3791 2.44727 30.041C3.15212 29.6409 3.9095 29.0646 4.71875 28.3115C5.52813 27.5583 6.40285 26.5813 7.34277 25.3809C8.3088 24.1804 9.37882 22.7086 10.5537 20.9668H20.3447ZM21.915 35.5918C22.8524 35.5918 23.8387 35.7559 24.873 36.084C25.0276 36.1315 25.182 36.1829 25.3379 36.2334C25.0523 36.5535 24.7368 36.8328 24.3887 37.0684C23.419 37.7011 22.4647 38.0176 21.5273 38.0176C21.0103 38.0175 20.5898 37.9121 20.2666 37.7012C19.9436 37.4669 19.7823 37.1971 19.7822 36.8926C19.7822 36.4942 19.96 36.1777 20.3154 35.9434C20.6709 35.709 21.2042 35.5918 21.915 35.5918ZM44.5 9.65723C47.7469 13.8555 49.6797 19.1219 49.6797 24.8398C49.6797 28.5407 48.8683 32.0516 47.417 35.207C46.6828 35.8693 45.8281 36.3861 44.8486 36.752C43.782 37.1503 42.4888 37.3496 40.9697 37.3496C39.8062 37.3496 38.675 37.2441 37.5762 37.0332C36.5096 36.8223 35.4591 36.541 34.4248 36.1895C33.4229 35.838 32.4208 35.4745 31.4189 35.0996C31.1279 34.9871 30.834 34.878 30.54 34.7676C30.6265 34.5555 30.711 34.3388 30.7881 34.1152L37.043 16.3623C37.3662 15.4483 37.738 14.6748 38.1582 14.042C38.6107 13.3858 38.9767 12.7396 40.1504 11.8164C40.8966 11.2294 41.5321 10.5668 42.8467 10.0342C43.2249 9.88093 43.9705 9.70122 44.5 9.65723ZM24.8398 0C31.6266 2.09082e-05 37.7764 2.72315 42.2598 7.13477C42.2081 7.15182 42.1551 7.16814 42.1016 7.18652C40.1514 7.85643 39.095 8.64862 38.1582 9.2959C36.0039 10.7843 35.4269 11.628 34.7158 12.6357C34.0047 13.6201 33.4067 14.7686 32.9219 16.0811L29.2969 26.3711C28.9043 26.8804 28.5188 27.2931 28.1377 27.6055C27.5635 28.0524 27.0022 28.2754 26.4541 28.2754C26.0886 28.2754 25.7488 28.1931 25.4355 28.0283C25.1486 27.84 24.8872 27.5463 24.6523 27.1465C24.4435 26.7228 24.2611 26.1689 24.1045 25.4863C23.974 24.7802 23.8693 23.9212 23.791 22.9092C23.6605 21.4735 23.5559 20.0024 23.4775 18.4961C23.4253 16.9898 23.3865 15.4713 23.3604 13.9414C23.3342 12.3879 23.3342 10.8338 23.3604 9.28027C23.3865 7.72684 23.4253 6.18517 23.4775 4.65527C23.5559 3.12529 23.6475 1.61865 23.752 0.135742C23.7537 0.0978361 23.7521 0.0607303 23.752 0.0244141C24.1126 0.0088715 24.4753 0 24.8398 0ZM18.5391 0.806641C16.8195 4.0223 15.2561 6.88336 13.8438 9.38672C12.3295 12.1171 10.9585 14.4943 9.73145 16.5186C8.53044 18.5193 7.44649 20.2138 6.48047 21.6025C5.51454 22.9676 4.65359 24.0978 3.89648 24.9922C3.16544 25.8631 2.48599 26.5341 1.85938 27.0049C1.25656 27.4577 0.70147 27.7783 0.195312 27.9697C0.0664219 26.9446 3.26614e-06 25.9 0 24.8398C0 13.2983 7.87165 3.5956 18.5391 0.806641ZM20.2275 3.80762C20.1753 5.40808 20.1355 7.02053 20.1094 8.64453C20.0833 10.2687 20.0703 11.8818 20.0703 13.4824C20.0964 15.0828 20.1363 16.6596 20.1885 18.2129H12.3164C13.439 16.3771 14.6527 14.2706 15.958 11.8936C17.2635 9.49265 18.6871 6.79697 20.2275 3.80762Z" fill="#F0E3C8"/>
<path d="M67.4887 12.925L76.8991 33.3745H73.4758L70.4295 26.7088H61.8485L58.6966 33.3745H57.0076L66.6442 12.925H67.4887ZM62.4367 25.4119H69.8112L66.1767 17.4944L62.4367 25.4119ZM77.5271 13.3774H84.1928C86.2438 13.3774 88.0082 13.5684 89.4862 13.9505C90.9641 14.3325 92.1957 14.9458 93.181 15.7903C94.307 16.7555 95.1515 17.8614 95.7145 19.1081C96.2876 20.3548 96.5741 21.7171 96.5741 23.195C96.5741 24.6025 96.3178 25.9246 95.805 27.1612C95.3023 28.3979 94.5583 29.4786 93.5731 30.4036C92.5978 31.3185 91.3863 32.0424 89.9386 32.5752C88.5009 33.1081 86.8521 33.3745 84.9921 33.3745H77.5271V13.3774ZM80.8901 31.9117H84.4643C85.5903 31.9117 86.651 31.7257 87.6463 31.3537C88.6416 30.9817 89.5063 30.4287 90.2402 29.6948C90.9842 28.9609 91.5673 28.061 91.9896 26.9953C92.4219 25.9196 92.638 24.6779 92.638 23.2704C92.638 22.0338 92.437 20.9027 92.0348 19.8772C91.6327 18.8417 91.0696 17.9519 90.3458 17.2079C89.6219 16.4639 88.7573 15.8858 87.7519 15.4736C86.7565 15.0614 85.6657 14.8553 84.4793 14.8553H80.8901V31.9117ZM98.9515 13.3774H105.889C107.085 13.3774 108.136 13.5081 109.041 13.7695C109.945 14.0208 110.699 14.3778 111.303 14.8402C111.906 15.3027 112.358 15.8557 112.66 16.4991C112.972 17.1325 113.127 17.8262 113.127 18.5803C113.127 19.2036 113.007 19.7867 112.765 20.3296C112.534 20.8725 112.202 21.3652 111.77 21.8076C111.348 22.2399 110.835 22.6169 110.232 22.9386C109.629 23.2503 108.965 23.4966 108.241 23.6776L115.525 33.3745H111.619L104.667 23.9792H102.314V33.3745H98.9515V13.3774ZM102.314 22.9688H104.26C105.014 22.9688 105.708 22.8682 106.341 22.6672C106.984 22.4661 107.537 22.1846 108 21.8226C108.472 21.4506 108.839 21.0032 109.101 20.4804C109.362 19.9576 109.493 19.3695 109.493 18.716C109.493 18.1128 109.387 17.5598 109.176 17.0571C108.975 16.5544 108.684 16.1271 108.302 15.7752C107.93 15.4133 107.482 15.1318 106.959 14.9307C106.447 14.7296 105.884 14.6291 105.27 14.6291H102.314V22.9688ZM116.093 13.3774H119.456V33.3745H116.093V13.3774ZM136.643 13.3774V14.6743H126.101V21.8226H133.159V23.1196H126.101V32.0776H136.643V33.3745H122.738V13.3774H136.643ZM138.432 13.3774H140.317L153.422 28.0058H153.573V13.3774H155.051V33.842H154.267L140.076 17.5849H139.955V33.3745H138.432V13.3774ZM158.318 13.3774H160.203L173.308 28.0058H173.459V13.3774H174.937V33.842H174.153L159.962 17.5849H159.841V33.3745H158.318V13.3774ZM192.108 13.3774V14.6743H181.567V21.8226H188.625V23.1196H181.567V32.0776H192.108V33.3745H178.204V13.3774H192.108ZM202.242 13.3774H205.605V32.0776H215.679V33.3745H202.242V13.3774ZM216.216 13.3774H219.579V26.3619C219.579 27.2165 219.725 28.0208 220.016 28.7749C220.308 29.5189 220.725 30.1724 221.268 30.7354C221.811 31.2984 222.464 31.7458 223.229 32.0776C224.003 32.3993 224.862 32.5601 225.807 32.5601C226.763 32.5601 227.622 32.3993 228.386 32.0776C229.15 31.7458 229.799 31.2984 230.332 30.7354C230.875 30.1724 231.287 29.5189 231.568 28.7749C231.86 28.0208 232.006 27.2165 232.006 26.3619V13.3774H233.484V26.3619C233.484 27.3874 233.318 28.3526 232.986 29.2575C232.654 30.1623 232.131 30.9566 231.417 31.6402C230.714 32.3138 229.809 32.8517 228.703 33.2539C227.597 33.646 226.27 33.842 224.722 33.842C223.344 33.842 222.123 33.646 221.057 33.2539C220.001 32.8517 219.112 32.3088 218.388 31.6251C217.674 30.9415 217.131 30.1422 216.759 29.2273C216.397 28.3023 216.216 27.3171 216.216 26.2715V13.3774ZM239.601 23.4514C239.601 24.8488 239.812 26.1056 240.234 27.2216C240.657 28.3275 241.235 29.2675 241.969 30.0417C242.713 30.8058 243.587 31.3939 244.593 31.8061C245.598 32.2083 246.689 32.4093 247.865 32.4093C248.569 32.4093 249.248 32.2736 249.901 32.0022C250.555 31.7307 251.158 31.3788 251.711 30.9465C252.274 30.5041 252.776 30.0115 253.219 29.4686C253.661 28.9156 254.023 28.3576 254.305 27.7946L255.722 28.6995C255.31 29.3731 254.822 30.0216 254.259 30.6449C253.696 31.2582 253.043 31.8061 252.299 32.2887C251.565 32.7612 250.73 33.1382 249.795 33.4198C248.871 33.7013 247.835 33.842 246.689 33.842C245.03 33.842 243.522 33.5655 242.165 33.0126C240.817 32.4596 239.661 31.7106 238.696 30.7655C237.731 29.8205 236.982 28.7196 236.449 27.4628C235.926 26.1961 235.665 24.8589 235.665 23.4514C235.665 22.5163 235.785 21.6065 236.027 20.7217C236.268 19.8269 236.615 18.9925 237.067 18.2183C237.53 17.4341 238.088 16.7203 238.741 16.0769C239.405 15.4234 240.149 14.8654 240.973 14.4029C241.808 13.9304 242.718 13.5684 243.703 13.3171C244.688 13.0557 245.739 12.925 246.855 12.925C247.92 12.925 248.901 13.0708 249.795 13.3623C250.7 13.6438 251.52 14.0208 252.254 14.4934C252.998 14.9659 253.656 15.5138 254.229 16.1372C254.812 16.7505 255.31 17.3939 255.722 18.0675L254.259 19.0327C253.425 17.414 252.49 16.2327 251.454 15.4887C250.419 14.7347 249.227 14.3576 247.88 14.3576C246.724 14.3576 245.643 14.5688 244.638 14.991C243.632 15.4133 242.753 16.0165 241.999 16.8007C241.255 17.5849 240.667 18.54 240.234 19.6661C239.812 20.7821 239.601 22.0438 239.601 23.4514ZM266.077 12.925L275.488 33.3745H272.064L269.018 26.7088H260.437L257.285 33.3745H255.596L265.233 12.925H266.077ZM261.025 25.4119H268.4L264.765 17.4944L261.025 25.4119ZM282.661 32.5752C283.153 32.5752 283.641 32.5099 284.124 32.3792C284.606 32.2384 285.038 32.0373 285.421 31.7759C285.803 31.5045 286.109 31.1777 286.34 30.7957C286.572 30.4036 286.687 29.9512 286.687 29.4384C286.687 28.8251 286.526 28.2822 286.205 27.8097C285.893 27.3271 285.481 26.8898 284.968 26.4977C284.455 26.0955 283.867 25.7185 283.204 25.3666C282.55 25.0147 281.882 24.6628 281.198 24.311C280.514 23.9591 279.841 23.5921 279.177 23.2101C278.524 22.818 277.94 22.3856 277.428 21.9131C276.915 21.4305 276.498 20.8977 276.176 20.3146C275.864 19.7214 275.708 19.0427 275.708 18.2786C275.708 17.5146 275.849 16.8058 276.131 16.1523C276.422 15.4988 276.845 14.9357 277.398 14.4632C277.95 13.9806 278.629 13.6036 279.433 13.3322C280.248 13.0607 281.178 12.925 282.223 12.925C283.168 12.925 284.013 13.0255 284.757 13.2266C285.501 13.4277 286.154 13.7243 286.717 14.1164C287.28 14.5085 287.758 14.991 288.15 15.5641C288.542 16.1372 288.859 16.8007 289.1 17.5548L287.381 18.339C287.18 17.7257 286.924 17.1677 286.612 16.665C286.3 16.1523 285.928 15.7149 285.496 15.353C285.064 14.991 284.561 14.7146 283.988 14.5235C283.425 14.3225 282.786 14.2219 282.073 14.2219C281.439 14.2219 280.886 14.3124 280.414 14.4934C279.941 14.6643 279.544 14.8955 279.222 15.1871C278.911 15.4686 278.674 15.7903 278.514 16.1523C278.363 16.5041 278.287 16.8661 278.287 17.2381C278.287 17.7609 278.448 18.2435 278.77 18.6858C279.092 19.1181 279.519 19.5304 280.052 19.9225C280.585 20.3045 281.188 20.6765 281.861 21.0384C282.545 21.4004 283.239 21.7673 283.943 22.1393C284.646 22.5113 285.335 22.8984 286.009 23.3005C286.692 23.7027 287.301 24.1451 287.833 24.6277C288.366 25.1002 288.794 25.623 289.115 26.1961C289.437 26.7591 289.598 27.3925 289.598 28.0962C289.598 28.8905 289.447 29.6395 289.145 30.3433C288.844 31.037 288.391 31.6452 287.788 32.168C287.185 32.6808 286.436 33.088 285.541 33.3896C284.646 33.6912 283.606 33.842 282.419 33.842C281.454 33.842 280.595 33.7365 279.841 33.5253C279.087 33.3142 278.418 33.0075 277.835 32.6054C277.262 32.2032 276.769 31.7156 276.357 31.1426C275.945 30.5594 275.608 29.8959 275.347 29.1519L277.141 28.4129C277.352 29.0664 277.634 29.6496 277.986 30.1623C278.348 30.6751 278.765 31.1124 279.237 31.4743C279.71 31.8262 280.233 32.0977 280.806 32.2887C281.389 32.4797 282.007 32.5752 282.661 32.5752Z" fill="#F0E3C8"/>
</svg>
