<svg width="54" height="54" viewBox="0 0 54 54" fill="none" xmlns="http://www.w3.org/2000/svg">
<g clip-path="url(#clip0_67_629)">
<path d="M27 0C41.9116 0.000116847 53.9999 12.0884 54 27C54 41.9113 41.9117 53.9999 27 54C12.0884 54 0 41.9114 0 27C0.000116335 12.0883 12.0885 0 27 0ZM11.1123 19.5996C7.02048 19.5997 3.70329 22.917 3.70312 27.0088C3.70312 31.1007 7.02038 34.4188 11.1123 34.4189C12.3197 34.417 13.572 33.9037 14.4541 33.0508V34.293H18.5215V27.0088C18.5213 22.9169 15.2042 19.5996 11.1123 19.5996ZM19.5576 27.0088C19.5576 31.1008 22.8748 34.4189 26.9668 34.4189C31.0593 34.4189 34.376 31.1008 34.376 27.0088C34.3758 22.9169 31.0592 19.5996 26.9668 19.5996C25.8373 19.6013 24.6678 19.9608 23.709 20.6104V15.9531H19.5576V27.0088ZM42.8535 19.5996C38.7617 19.5997 35.4445 22.917 35.4443 27.0088C35.4443 31.1008 38.7616 34.4189 42.8535 34.4189C46.5606 34.4146 49.695 31.6704 50.1885 27.9971H45.959C45.5401 29.314 44.3086 30.2676 42.8535 30.2676C41.0538 30.2675 39.5957 28.8088 39.5957 27.0098C39.5957 25.21 41.0545 23.7517 42.8535 23.751C44.3088 23.751 45.5409 24.7053 45.959 26.0225H50.1885C49.6945 22.3476 46.5607 19.6039 42.8535 19.5996ZM11.1123 23.75C12.9121 23.75 14.3711 25.2097 14.3711 27.0088C14.3709 28.8091 12.9113 30.2676 11.1123 30.2676C9.31275 30.2675 7.85467 28.8083 7.85449 27.0088C7.85449 25.2091 9.31329 23.7501 11.1123 23.75ZM26.9668 23.751C28.7666 23.751 30.2246 25.21 30.2246 27.0098C30.2246 28.8097 28.7659 30.2676 26.9668 30.2676C25.167 30.2676 23.709 28.8089 23.709 27.0098C23.709 25.2094 25.167 23.751 26.9668 23.751Z" fill="#552D1A"/>
</g>
<defs>
<clipPath id="clip0_67_629">
<rect width="54" height="54" fill="white"/>
</clipPath>
</defs>
</svg>
