<svg xmlns="http://www.w3.org/2000/svg" fill="none" viewBox="0 0 121 37.3699" width="121" height="37.3699" preserveAspectRatio="xMidYMid meet" overflow="visible" style="display:block">
<g id="Group 3">
<path id="Vector" d="M16.9655 0H12.3159L0 28.4995H6.19946L8.60728 22.6114H20.5357L22.9435 28.4995H29.2883L16.9655 0ZM10.766 17.3599L14.5577 7.99148L18.3493 17.3599H10.766Z" fill="var(--fill-0, #552D1A)"/>
<path id="Vector_2" d="M44.8494 0V9.22307C43.1404 7.68013 41.127 6.66995 38.5739 6.66995C32.7688 6.66995 28.1953 11.2434 28.1953 17.8303C28.1953 24.0298 32.6027 28.8247 38.4286 28.8247C40.9056 28.8247 43.0782 27.8145 45.0155 25.8011V28.5203H50.7444V0.0138381H44.8563V0H44.8494ZM39.8193 23.3933C36.4013 23.3933 34.2426 20.9162 34.2426 17.7335C34.2426 14.3155 36.4082 12.0737 39.7432 12.0737C42.6077 12.0737 45.0155 14.3985 45.0155 17.7335C45.0155 21.4559 42.3793 23.3933 39.8262 23.3933H39.8193Z" fill="var(--fill-0, #552D1A)"/>
<path id="Vector_3" d="M69.4809 9.57793e-05H64.8313L52.5154 28.4996H58.7148L61.1227 22.6115H73.0511L75.4589 28.4996H81.8175L69.4809 9.57793e-05ZM63.2814 17.36L67.073 7.99158L70.8647 17.36H63.2814Z" fill="var(--fill-0, #552D1A)"/>
<path id="Vector_4" d="M101.253 5.4316H101.17C99.1568 6.27573 96.9082 7.05758 94.4311 7.05758C92.9643 7.05758 91.795 6.67011 89.7124 6.67011C83.9073 6.67011 80.1157 10.7731 80.1157 15.5057C80.1157 18.5293 81.5825 21.0825 84.0664 22.5493L82.7518 26.5831L82.8348 26.6661C84.4608 25.8843 86.239 25.1993 88.8682 25.1993C91.8919 25.1993 93.587 26.7422 93.587 28.9217C93.587 31.1012 91.7327 32.5681 88.7852 32.5681C86.1491 32.5681 84.0664 31.6409 81.8869 29.8489H81.8039L80.0949 34.4224C82.5027 36.2767 85.4433 37.3699 88.8475 37.3699C95.2753 37.3699 99.3852 33.9519 99.3852 29.157C99.3852 26.0642 97.6762 23.8086 94.7356 22.4178C97.6001 20.951 98.9977 18.3148 98.9977 15.9901C98.9977 13.8244 98.2989 11.9563 96.3615 10.3303L99.8418 10.6416L101.239 5.43852L101.253 5.4316ZM89.5532 20.3006C87.0762 20.3006 85.6025 18.135 85.6025 15.8102C85.6025 13.4854 87.0693 11.2367 89.5532 11.2367C92.0371 11.2367 93.504 13.4023 93.504 15.8102C93.504 18.218 92.0233 20.3006 89.5532 20.3006Z" fill="var(--fill-0, #552D1A)"/>
<path id="Vector_5" d="M121 17.519C121 11.8592 117.353 6.66992 111.237 6.66992C105.121 6.66992 100.775 11.3887 100.775 17.8303C100.775 24.2719 105.736 28.8247 111.465 28.8247C114.558 28.8247 117.27 27.8975 119.062 26.8873L120.377 21.5389L120.294 21.4559C118.045 22.8535 115.492 23.7807 112.628 23.7807C109.763 23.7807 107.438 22.4661 106.657 19.6777H120.827C120.91 19.2072 120.986 18.1348 120.986 17.512L121 17.519ZM106.67 15.5816C107.21 12.9455 108.919 11.4025 111.078 11.4025C113.237 11.4025 114.8 12.8002 115.257 15.5816H106.663H106.67Z" fill="var(--fill-0, #552D1A)"/>
</g>
</svg>
