<svg xmlns="http://www.w3.org/2000/svg" fill="none" viewBox="0 0 173 42.1741" width="173" height="42.1741" preserveAspectRatio="xMidYMid meet" overflow="visible" style="display:block">
<g id="Layer_1">
<path id="Vector" d="M75.569 24.5297C74.7944 25.3043 73.8476 25.7346 72.6426 25.7346H69.372V17.558H72.6426C73.7615 17.558 74.7083 17.9884 75.569 18.763C76.3436 19.5376 76.774 20.4844 76.774 21.6033C76.774 22.7222 76.3436 23.669 75.569 24.5297ZM72.6426 14.9759H66.876V28.1446H72.6426C74.4501 28.1446 75.9993 27.456 77.2904 26.165C78.5814 24.8739 79.27 23.3247 79.27 21.5172C79.27 19.7098 78.5814 18.1605 77.2904 16.8695C75.9993 15.6645 74.4501 14.9759 72.6426 14.9759ZM52.158 14.9759L45.875 28.2307H48.7153L51.2113 22.8083L53.4491 18.2466L55.6008 22.8083L56.8058 25.3043L58.0968 28.2307H60.9371L54.6541 14.9759H52.158ZM92.0944 25.9068C90.8894 25.9068 89.8565 25.4764 89.0819 24.6157C88.2212 23.755 87.7909 22.7222 87.7909 21.5172C87.7909 20.3122 88.2212 19.3655 89.0819 18.5048C89.9426 17.6441 90.8894 17.2998 92.0944 17.2998C93.4715 17.2998 94.6764 17.9023 95.6232 19.1073L97.6889 17.7302C96.3118 15.8366 94.5043 14.8899 92.1804 14.8038C90.2869 14.8038 88.6516 15.4923 87.2745 16.7834C85.9834 18.0744 85.2949 19.7098 85.2949 21.6033C85.2949 23.4968 85.9834 25.0461 87.2745 26.4232C88.5655 27.7142 90.2008 28.4028 92.0944 28.4028C94.4182 28.4028 96.3118 27.37 97.775 25.3904L95.7093 24.0132C94.5904 25.3043 93.4715 25.9068 92.0944 25.9068ZM113.181 24.6157C112.321 25.4764 111.288 25.9068 110.083 25.9068C108.878 25.9068 107.845 25.4764 106.984 24.6157C106.124 23.755 105.693 22.7222 105.693 21.5172C105.693 20.3122 106.124 19.3655 106.984 18.5048C107.845 17.7302 108.878 17.2998 110.083 17.2998C111.288 17.2998 112.321 17.7302 113.181 18.5048C114.042 19.3655 114.472 20.3122 114.472 21.5172C114.472 22.7222 114.042 23.755 113.181 24.6157ZM110.083 14.8038C108.103 14.8038 106.468 15.4923 105.177 16.7834C103.886 18.0744 103.197 19.7098 103.197 21.6033C103.197 23.4968 103.886 25.0461 105.263 26.4232C106.64 27.8003 108.275 28.4889 110.083 28.4889C111.976 28.4889 113.612 27.8003 114.903 26.4232C116.28 25.0461 116.968 23.4108 116.968 21.5172C116.968 19.7098 116.28 18.0744 114.903 16.7834C113.526 15.4923 111.976 14.8038 110.083 14.8038ZM126.092 14.9759H123.596V28.2307H134.268V25.7346H126.092V14.9759ZM168.094 20.7426H162.499V17.4719H168.094C168.524 17.4719 168.955 17.6441 169.299 17.9884C169.643 18.3326 169.815 18.6769 169.815 19.1073C169.815 19.5376 169.643 19.968 169.299 20.2262C168.955 20.5705 168.524 20.7426 168.094 20.7426ZM169.385 23.0665C170.246 22.7222 170.934 22.2918 171.451 21.5172C171.967 20.8287 172.225 20.054 172.225 19.1073C172.225 17.9884 171.795 17.0416 171.02 16.1809C170.246 15.4063 169.213 14.9759 168.094 14.9759H160.003V28.1446H162.499V23.2386H166.545L169.471 28.1446H172.397L169.385 23.0665ZM149.675 24.6157C148.814 25.4764 147.781 25.9068 146.576 25.9068C145.371 25.9068 144.339 25.4764 143.478 24.6157C142.617 23.755 142.187 22.7222 142.187 21.5172C142.187 20.3122 142.617 19.3655 143.478 18.5048C144.339 17.7302 145.371 17.2998 146.576 17.2998C147.781 17.2998 148.814 17.7302 149.675 18.5048C150.536 19.3655 150.966 20.3122 150.966 21.5172C150.966 22.7222 150.536 23.755 149.675 24.6157ZM146.576 14.8038C144.597 14.8038 142.962 15.4923 141.67 16.7834C140.379 18.0744 139.691 19.7098 139.691 21.6033C139.691 23.4968 140.379 25.0461 141.757 26.4232C143.134 27.8003 144.769 28.4889 146.576 28.4889C148.47 28.4889 150.105 27.8003 151.396 26.4232C152.773 25.0461 153.462 23.4108 153.462 21.5172C153.462 19.7098 152.773 18.0744 151.396 16.7834C150.019 15.4923 148.47 14.8038 146.576 14.8038Z" fill="var(--fill-0, #410F0B)"/>
<path id="Vector_2" d="M36.4076 12.2218L39.4201 10.7586C35.8051 4.47551 29.0917 0.2581 21.3454 0.2581C9.89818 0.2581 0.602656 9.63969 0.602656 21.087C0.602656 32.5342 9.98425 41.9158 21.4315 41.9158C29.0917 41.9158 35.7191 37.7845 39.4201 31.5875L36.3216 30.2103C33.2231 35.2024 27.7146 38.5591 21.4315 38.5591C11.7917 38.5591 3.95937 30.7268 3.95937 21.087C3.95937 11.4472 11.7917 3.61482 21.4315 3.61482C27.8007 3.61482 33.3952 7.0576 36.4076 12.2218Z" fill="var(--fill-0, #410F0B)"/>
<path id="Vector_3" d="M19.5374 10.4146L11.1025 28.1449H14.8896L18.3324 20.829L21.2588 14.632L24.1851 20.829L25.7344 24.2718H25.8204L27.6279 28.1449H31.3289L22.8941 10.4146H19.5374Z" fill="var(--fill-0, #410F0B)"/>
</g>
</svg>
