<svg width="128" height="45" viewBox="0 0 128 45" fill="none" xmlns="http://www.w3.org/2000/svg">
<g clip-path="url(#clip0_67_440)">
<path d="M125.955 42.5904H126.48C126.708 42.5904 126.962 42.6741 126.962 42.9602C126.962 43.2844 126.648 43.3137 126.36 43.3137H125.955V43.4524H126.449L127.022 44.3108H127.203L126.635 43.457C126.906 43.4144 127.126 43.2674 127.126 42.9649C127.126 42.6279 126.936 42.4512 126.506 42.4512H125.791V44.3108H125.955V42.5904Z" fill="#552D1A"/>
<path d="M126.377 41.8076C127.268 41.8076 127.986 42.5098 127.986 43.3811C127.986 44.2518 127.268 44.954 126.377 44.954C125.486 44.954 124.768 44.2518 124.768 43.3811C124.768 42.5098 125.486 41.8076 126.377 41.8076L126.381 41.9468C125.551 41.9468 124.932 42.5689 124.932 43.3811C124.932 44.1758 125.559 44.8153 126.381 44.8153C127.203 44.8153 127.823 44.1717 127.823 43.3765C127.823 42.573 127.207 41.9468 126.381 41.9468L126.377 41.8076Z" fill="#552D1A"/>
<path d="M110.372 43.425H102.785V0.0693359H110.372V17.0522L114.265 0.0693359H122.377L117.26 17.4637L122.65 43.425H114.764L112.005 24.6426L110.372 27.9226V43.425Z" fill="#552D1A"/>
<path d="M86.9738 36.1279H79.608V24.7269H85.4174V17.4467H79.608V6.83578H86.9738V0.0693359H71.5996V43.425H86.9738V36.1279Z" fill="#552D1A"/>
<path d="M102.124 36.1279H95.0818V24.7269H100.636V17.4467H95.0818V6.83578H102.124V0.0693359H87.4238V43.425H102.124V36.1279Z" fill="#552D1A"/>
<path d="M40.623 0.0693359L46.051 43.425H54.2659L56.3356 15.5497L59.0275 43.425H66.0954L71.094 0.0693359H64.8396L63.2952 24.4284L60.6554 0.0693359H52.5424L50.4275 24.0452L47.8322 0.0693359H40.623Z" fill="#552D1A"/>
<path d="M33.1099 34.1651C33.1099 35.8166 32.3464 37.1553 31.4048 37.1553H30.0827V6.83578L31.4048 6.83629C32.3464 6.83629 33.1099 8.17448 33.1099 9.82654V34.1651ZM34.7976 0.0693359H22.232V27.4587L22.2246 27.3879V43.425L34.7976 43.4245C38.0155 43.4245 40.6238 39.7423 40.6238 35.2007V8.29366C40.6238 3.75153 38.0155 0.0693359 34.7976 0.0693359Z" fill="#552D1A"/>
<path d="M8.69941 27.7551L10.6226 9.23784L12.5457 27.7551H8.69941ZM16.8381 0.0693359H5.35806L0.0410156 43.4522H6.90289L7.70105 33.7541H12.4927L13.2913 43.4522H21.7837L16.8381 0.0693359Z" fill="#552D1A"/>
</g>
<defs>
<clipPath id="clip0_67_440">
<rect width="128" height="45" fill="white"/>
</clipPath>
</defs>
</svg>
