<svg width="170" height="43" viewBox="0 0 170 43" fill="none" xmlns="http://www.w3.org/2000/svg">
<g clip-path="url(#clip0_67_609)">
<mask id="mask0_67_609" style="mask-type:luminance" maskUnits="userSpaceOnUse" x="0" y="0" width="170" height="43">
<path d="M170 0H0V42.6977H170V0Z" fill="white"/>
</mask>
<g mask="url(#mask0_67_609)">
<path d="M87.2382 0.382812H81.1973L74.6829 9.33115V0.385089H69.3379V19.6887H74.6829V10.7471L81.1949 19.6887H87.2247L79.9962 10.0391L87.2382 0.382812Z" fill="#552D1A"/>
<path d="M18.0215 42.397H23.314V31.8096L31.5555 42.397H36.2429V23.0957H30.948V33.296L23.0091 23.0957H18.0215V42.397Z" fill="#552D1A"/>
<path d="M43.3218 42.397H48.669V27.7827H54.4576V23.0957H37.5332V27.7827H43.3218V42.397Z" fill="#552D1A"/>
<path d="M14.1211 9.59004C15.83 8.84568 17.0974 7.5231 17.0974 5.28999V5.23308C17.0974 3.91052 16.6287 2.89071 15.8573 2.11675C14.7287 0.985394 13.0199 0.379883 10.592 0.379883H1.08992H0V4.68447L1.08992 4.83699V15.2263L0 15.3811V19.6812H10.6489C15.252 19.6812 17.9529 17.6688 17.9529 14.359V14.3043C17.9529 11.6843 16.4649 10.3617 14.1211 9.58775M6.29832 4.68221H9.37918C10.9788 4.68221 11.8048 5.28999 11.8048 6.33711V6.39175C11.8048 7.52309 10.8969 8.07396 9.26998 8.07396H6.29832V4.68221ZM12.6058 13.6169C12.6058 14.746 11.6682 15.3811 10.0414 15.3811H6.29832V11.8254H9.98675C11.7775 11.8254 12.6058 12.5151 12.6058 13.5623V13.6169Z" fill="#552D1A"/>
<path d="M16.1554 37.8511H6.38251V34.7893H14.2736V30.569H6.38251V27.6461H15.2452L16.7447 23.0957L2.76689 23.098V23.0957H0V27.398L1.08992 27.5528V37.9421L0 38.0946V42.4015H2.76689V42.3992H16.1554V37.8511Z" fill="#552D1A"/>
<path d="M19.2363 19.6883H30.4381L32.0059 15.0013H24.5836V0.384766H19.2363V19.6883Z" fill="#552D1A"/>
<path d="M61.3279 20.0752C65.5988 20.0752 68.1336 19.8203 68.1336 19.8203L66.6069 15.197C66.6069 15.197 63.5032 15.1947 61.4918 15.1947C58.7908 15.1947 56.8886 12.932 56.8886 10.0365V9.98185C56.8886 7.16825 58.7908 4.88052 61.4918 4.88052C63.3394 4.88052 66.6137 4.88962 66.6137 4.88962L68.12 0.371047C68.12 0.371047 65.4873 0 61.5441 0C55.7008 0 51.373 4.41159 51.373 10.0365V10.0934C51.373 15.8571 55.8123 20.0752 61.3256 20.0752" fill="#552D1A"/>
<path fill-rule="evenodd" clip-rule="evenodd" d="M73.7734 42.3963H79.1227V36.5484H81.4663L85.3526 42.3963H91.5263L86.9253 35.6674C89.3211 34.6476 90.8938 32.6899 90.8938 29.7398V29.6851C90.8938 27.7821 90.3134 26.2934 89.1851 25.1893C87.8899 23.8645 85.8491 23.0928 82.8998 23.0928H73.7757V42.3941L73.7734 42.3963ZM79.1227 32.3598V27.7252H82.6247C84.418 27.7252 85.5194 28.4992 85.5194 30.0153V30.0699C85.5194 31.4766 84.4725 32.3598 82.6523 32.3598H79.125H79.1227Z" fill="#552D1A"/>
<path fill-rule="evenodd" clip-rule="evenodd" d="M92.6348 42.3963H97.9823V36.8807H100.626C105.423 36.8807 108.925 34.4837 108.925 29.9333V29.8763C108.925 25.6036 105.78 23.0928 100.904 23.0928H92.6348V42.3941V42.3963ZM97.9823 32.6899V27.5886H100.49C102.421 27.5886 103.577 28.4696 103.577 30.1267V30.1837C103.577 31.6998 102.421 32.6922 100.517 32.6922H97.9823V32.6899Z" fill="#552D1A"/>
<path fill-rule="evenodd" clip-rule="evenodd" d="M110.438 42.3963H115.785V36.5484H118.129L122.015 42.3963H128.19L123.587 35.6674C125.985 34.6476 127.555 32.6899 127.555 29.7398V29.6851C127.555 27.7821 126.977 26.2934 125.849 25.1893C124.551 23.8645 122.513 23.0928 119.564 23.0928H110.44V42.3941L110.438 42.3963ZM115.785 32.3598V27.7252H119.286C121.08 27.7252 122.181 28.4992 122.181 30.0153V30.0699C122.181 31.4766 121.132 32.3598 119.314 32.3598H115.785Z" fill="#552D1A"/>
<path d="M134.643 23.0957H129.268V42.397H134.643V23.0957Z" fill="#552D1A"/>
<path d="M71.8878 37.8511H62.1149V34.7893H70.006V30.569H62.1149V27.6461H70.9753L72.4771 23.0957L58.497 23.098V23.0957H55.7324V27.398L56.8223 27.5528V37.9421L55.7324 38.0946V42.4015H58.497V42.3992H71.8878V37.8511Z" fill="#552D1A"/>
<path d="M169.414 37.8511H159.638V34.7893H167.532V30.569H159.638V27.6461H168.501L170 23.0957L156.023 23.098V23.0957H153.256V27.398L154.346 27.5528V37.9421L153.256 38.0946V42.4015H156.023V42.3992H169.414V37.8511Z" fill="#552D1A"/>
<path d="M144.443 42.6974C149.129 42.6974 152.241 40.3528 152.241 36.4101V36.3532C152.241 32.7429 149.485 31.3088 145.046 30.3437C142.375 29.7358 141.71 29.3489 141.71 28.4679V28.4132C141.71 27.7235 142.345 27.1726 143.642 27.1726C145.351 27.1726 150.341 27.3752 150.341 27.3752L151.774 23.0752C151.774 23.0752 147.06 22.7314 143.781 22.7314C139.151 22.7314 136.311 25.3242 136.311 28.9072V28.9618C136.311 32.9318 139.48 34.0905 143.587 35.0284C146.209 35.6339 146.839 36.0755 146.839 36.8768V36.9336C146.839 37.76 146.068 38.2562 144.634 38.2562C142.4 38.2562 137.421 38.0741 137.421 38.0741L136.049 42.3787C136.049 42.3787 141.023 42.6951 144.443 42.6951" fill="#552D1A"/>
<path d="M39.5333 11.9304L41.8655 4.33425H42.6074L44.9374 11.9304H39.5333ZM46.2844 0.384766H38.1863L31.7969 19.6951H37.1509L38.209 16.2419H46.2571L47.3175 19.6951H52.6714L46.2844 0.384766Z" fill="#552D1A"/>
</g>
</g>
<defs>
<clipPath id="clip0_67_609">
<rect width="170" height="42.6977" fill="white"/>
</clipPath>
</defs>
</svg>
