<svg xmlns="http://www.w3.org/2000/svg" fill="none" viewBox="0 0 106 45.4286" width="106" height="45.4286" preserveAspectRatio="xMidYMid meet" overflow="visible" style="display:block">
<g id="cannes-lions-1 1" clip-path="url(#clip0_0_8)">
<path id="Vector" d="M85.8086 7.28289C86.1699 7.78193 85.8401 9.37263 86.2484 9.32585C86.641 9.27906 87.9917 6.67468 87.5519 5.77016C87.0965 4.86564 83.9083 3.82077 83.3586 3.78958C81.1913 3.66482 80.5631 5.38028 80.3118 6.75265C80.2018 7.37646 78.1445 11.8367 78.2387 11.6963L82.4948 6.9086C83.2173 6.19123 85.2747 6.54992 85.8086 7.28289ZM65.0462 42.8709C64.8892 43.2608 64.3552 42.637 64.5122 42.2004C64.5593 42.0756 65.2033 40.6564 66.6325 40.9527C67.0408 41.0463 65.5645 41.6077 65.0462 42.8709ZM87.5519 21.7084C88.5257 21.1469 91.3526 16.7335 91.4626 16.9675C91.5568 17.2014 91.7138 18.4178 91.4154 19.2755C91.0071 20.414 87.5519 21.7084 87.5519 21.7084ZM93.1587 12.0706C93.0645 11.8523 95.6559 16.7023 95.1376 18.8389C94.3209 22.2386 91.2584 24.5779 91.2584 24.5779C91.2584 24.5779 92.719 21.8019 92.9389 21.3029C93.1587 20.8039 94.6193 15.751 93.1587 12.0706ZM100.43 14.8777C101.969 17.4977 99.8492 20.4764 99.3938 20.8974C99.0168 21.2561 98.2473 21.6616 97.729 21.9267C98.6556 21.0846 99.5037 20.0241 99.755 18.7765C99.9906 17.5133 99.5979 16.2501 98.9383 14.8465C98.8127 14.5814 96.4726 11.1505 96.2684 10.9633C96.6453 11.0101 99.645 13.1311 100.43 14.8777ZM101.404 21.0378C103.336 19.1196 103.634 17.0922 103.728 16.2501C104.09 18.0747 103.053 20.6791 102.205 21.8799C101.483 21.9111 100.792 22.0047 100.148 22.1138C100.634 21.8487 100.949 21.49 101.404 21.0378ZM92.8132 33.5607C89.9706 37.1787 85.1804 37.0228 81.9137 38.3328C78.0973 39.8455 75.4902 42.5279 74.8149 43.1984C73.637 44.3525 72.1607 44.0562 71.3597 44.0094C70.5588 43.9626 69.7892 43.5571 69.4594 43.4947C69.1296 43.4324 68.3757 43.5103 68.3757 43.5103C68.3757 43.5103 68.4072 43.1517 68.6741 42.9645C68.9568 42.793 69.5222 42.7306 70.5274 42.5279C71.5325 42.3251 72.3021 41.7949 72.6947 41.5298C73.103 41.2646 72.8361 41.1867 72.5691 41.2491C72.3178 41.3114 71.5011 41.6233 70.1033 41.8261C68.7055 42.0288 68.2501 41.9196 67.7161 42.2939C67.1664 42.6526 67.2921 43.5727 67.1664 43.8222C67.0408 44.0874 66.9466 44.1497 66.7581 43.9782C66.5853 43.8222 66.5068 43.1984 66.6325 42.6838C66.7738 42.1692 67.5905 41.7481 68.36 41.5765C69.1296 41.405 70.7629 41.2958 72.5376 40.3601C77.7832 37.5998 80.0919 35.5256 84.725 31.97C89.6565 28.1959 94.0539 26.1062 97.5248 24.4375C99.6607 23.4082 105.99 22.6441 105.99 22.6441C105.99 22.6441 105.079 22.0359 104.137 21.9267C103.571 21.8643 103.022 21.8487 102.488 21.8643C103.351 21.3965 105.55 19.7122 105.88 17.5445C106.304 14.6438 102.425 12.2421 102.378 9.60656C102.252 3.46208 96.0328 2.58876 96.3155 2.7603C97.4777 3.47768 98.687 4.86564 98.9069 5.66099C99.3152 7.11134 98.0745 8.68645 96.2684 9.29466C95.4046 9.57537 90.6302 10.6202 90.002 11.2596C89.3581 11.899 90.6773 15.252 89.8292 16.6088C88.9811 17.9655 84.2381 20.2892 83.6727 20.9442C83.1073 21.5992 82.5105 21.3965 82.3064 21.3809C82.1022 21.3653 82.275 21.6148 82.856 21.7396C83.4371 21.8643 84.4423 21.5212 85.0234 21.2093C85.6045 20.8818 86.4212 21.568 86.3897 22.0203C86.3426 22.4569 85.7929 22.5817 84.725 23.2523C83.8769 23.7825 81.4583 22.2854 81.2541 21.7863C81.0499 21.2873 81.7567 21.4588 82.1964 20.913C82.6362 20.3828 81.8666 20.2892 81.5996 20.3828C81.3169 20.4608 81.1599 20.3204 80.8772 20.2424C80.5945 20.1645 80.2333 20.2424 80.0605 20.4452C79.8877 20.6479 80.0605 20.8039 79.4009 20.8818C78.7413 20.9598 79.0397 20.1645 79.181 19.3067C79.3224 18.449 79.872 16.1721 79.7621 15.8914C79.6522 15.5951 79.6365 15.7042 79.4009 15.4235C79.1653 15.1428 79.1496 14.6438 79.1182 13.8328C79.1025 13.0219 79.1653 11.5092 79.1653 11.5092C79.1653 11.5092 78.6627 12.2421 78.4429 13.5365C78.223 14.8309 79.1339 15.5483 79.1496 15.751C79.1653 15.9538 79.1182 16.4216 78.7255 18.7141C78.3172 21.0066 78.8198 21.4433 79.3223 21.8487C79.8249 22.2542 82.0708 23.4082 82.0708 23.4082L82.0237 24.4375C82.0237 24.4375 80.9086 24.7962 79.8563 25.4824C78.8041 26.153 78.4114 27.3694 78.3329 27.7749C78.2544 28.1803 78.4743 28.118 78.4743 28.118C78.4743 28.118 78.7098 27.8684 79.5422 27.229C80.3589 26.5896 82.165 26.2465 82.3849 26.231C82.6048 26.2154 82.6205 26.2933 82.3378 26.4961C82.0551 26.6988 81.3169 27.229 79.7307 28.3987C78.1445 29.5839 77.9246 31.0498 77.9246 31.3929C77.9246 31.7204 78.1445 31.4553 78.1445 31.4553C78.1445 31.4553 78.3643 30.9563 78.914 30.4572C79.448 29.9582 80.673 29.6619 82.0394 29.4435C83.4057 29.2252 83.6256 28.8821 84.0496 28.2583C84.4737 27.6501 85.6202 26.4961 85.8558 26.3401C86.0913 26.1998 86.1542 26.2777 86.0128 26.3869C85.8715 26.4961 85.7929 26.574 85.0705 27.3382C84.348 28.118 84.2224 29.0381 84.2224 29.0381C84.2224 29.0381 84.615 28.4922 85.5103 27.884C86.3897 27.2602 88.5414 26.574 89.1068 26.4337C89.6565 26.2933 89.625 26.3713 89.5308 26.4493C89.4366 26.5273 89.3738 26.5429 88.7455 26.8704C88.133 27.1823 85.9343 28.4766 83.0602 30.5976C80.1233 32.7653 77.7204 35.2605 75.3489 37.0072C72.9931 38.7382 71.2184 39.518 70.2918 39.6739C69.3652 39.8299 68.2815 39.2997 66.9151 39.2373C65.5488 39.1749 64.6379 40.095 64.4965 40.2977C64.3552 40.5005 64.3552 40.672 64.4808 40.6564C64.6065 40.6408 64.8263 40.3913 65.0305 40.3913C65.2347 40.3913 65.219 40.5161 65.219 40.5161C65.219 40.5161 65.1247 40.5629 64.7321 40.75C64.3552 40.9527 63.7741 41.5142 63.4914 42.3719C63.2087 43.214 63.8683 44.4928 63.8683 44.4928C63.8683 44.4928 64.2924 44.4928 64.8735 44.7424C65.4545 44.9763 65.8315 45.1322 66.1142 45.3038C66.3969 45.4597 66.6796 45.5065 67.2607 45.3506C67.8418 45.179 69.0354 45.179 69.852 45.2258C70.6687 45.257 73.8726 46.0368 75.93 44.7112C82.3535 39.1125 89.0754 39.596 91.494 38.7382C96.4412 36.9448 95.6245 30.3013 104.341 31.315C103.917 30.3169 97.1008 28.1336 92.8132 33.5607ZM73.8883 19.8214C74.2181 20.0709 74.8463 21.2249 74.7678 21.0378C74.6893 20.8506 75.0191 19.7902 74.3124 18.4802C73.5899 17.1702 73.37 16.6867 73.0559 15.3768C72.7418 14.0512 72.1764 12.9751 73.1187 12.1642C74.0768 11.3532 74.8149 10.1836 75.1133 8.93597C75.4117 7.68836 76.4326 6.70587 77.5634 5.34909C78.6941 3.99232 78.914 3.78958 78.914 3.78958C78.647 4.14827 78.113 5.59861 77.8775 6.36278C77.6262 7.12694 76.4012 8.79561 75.8358 9.68453C75.2861 10.5735 74.014 12.2889 73.904 13.8952C73.8098 15.5015 75.129 17.4041 75.3332 18.1059C75.5217 18.8077 75.0662 20.7883 75.5531 22.2074C76.0242 23.6266 77.3749 24.9366 77.6262 25.1081C77.8618 25.2797 77.8146 25.1081 77.7361 25.0145C77.6576 24.921 77.5005 24.7806 77.1707 24.0944C76.8409 23.4238 76.998 22.6597 77.2178 21.6304C77.4534 20.6011 77.5634 19.7746 77.4691 18.7453C77.3749 17.716 76.5425 15.9694 76.2912 14.9089C76.0399 13.8484 76.6839 12.8036 77.7675 10.9945C78.8355 9.1699 78.9925 7.64157 79.1339 6.51873C79.2752 5.39588 79.9034 3.78958 81.5996 3.0878C82.5891 2.68233 85.3375 3.24375 86.7667 4.13267C87.7718 4.80326 88.2744 5.42707 88.4157 6.14444C88.5885 6.98658 88.0702 7.5636 87.7561 8.37455C87.442 9.20109 87.2221 10.1524 87.5833 10.1056C87.8975 10.0744 91.5882 6.98658 92.4206 6.09766C92.8289 5.6454 93.3786 4.50696 92.5933 3.49327C91.918 2.60435 87.1122 2.21447 86.1856 0.935675C85.3689 -0.202768 83.233 -0.140388 82.6048 0.28068C82.0237 0.670558 80.7515 1.73103 79.5108 2.15209C78.2701 2.57316 76.998 2.7759 75.3175 3.61804C73.637 4.47577 73.7156 5.45826 73.5271 6.17563C73.3386 6.89301 73.213 8.8268 71.8466 10.901C70.4645 12.9751 71.2655 14.3943 71.9408 16.4996C72.6005 18.5582 73.5585 19.5718 73.8883 19.8214ZM82.9817 18.7609C82.9503 18.9948 83.1859 18.7765 83.3743 18.5114C83.5628 18.2307 84.3166 16.9986 85.5417 14.9089C86.7667 12.8192 87.4891 11.0257 87.4263 10.9789C87.3478 10.9321 87.175 11.1037 86.9865 11.244C86.7824 11.3844 86.3897 11.7743 86.0599 12.1953C85.7301 12.6164 85.4474 12.5696 85.0234 12.6632C84.5993 12.7568 83.8298 13.5833 83.39 13.942C82.9503 14.2851 82.3535 14.6438 81.8038 14.7218C81.207 14.8153 81.1128 14.5502 80.8615 14.597C80.6102 14.6438 80.6259 15.0493 80.7044 15.3456C80.7986 15.6263 80.7201 15.7666 80.673 16.2657C80.6259 16.7803 80.9871 17.2638 81.2855 17.5601C81.5839 17.8408 81.4897 18.293 81.6938 18.449C81.898 18.6049 81.9608 17.5757 81.9608 16.9363C81.9608 16.3125 81.8195 15.6887 81.8352 15.5951C81.8666 15.5015 82.3692 15.3612 82.6048 15.2052C82.8561 15.0493 83.4371 14.6282 83.7198 14.4878C84.0182 14.3475 84.0182 14.4566 83.9397 14.6126C83.8612 14.7841 83.7041 15.0337 83.39 15.2988C83.0602 15.5795 82.2907 15.7822 82.1179 15.7978C81.9451 15.8134 81.9608 15.9538 82.1336 16.0941C82.3064 16.2189 82.7304 16.2189 83.1073 16.1253C83.4843 16.0162 83.4371 16.5152 83.39 17.0454C83.3429 17.5757 83.0288 18.527 82.9817 18.7609ZM91.2741 1.55948C94.1482 2.47959 94.7764 4.94362 93.7869 6.06647C93.2373 6.69027 92.6091 7.06456 91.1642 7.95348C89.7193 8.8424 89.1539 9.31025 88.6984 9.65334C88.243 10.012 87.9917 10.4955 88.9811 10.2304C89.0754 10.1992 95.1533 8.90478 95.9386 8.49931C97.2578 7.81312 97.6348 7.34527 97.8389 6.45635C98.0431 5.56742 96.6767 4.10148 96.0328 3.38411C94.745 1.90257 91.651 0.374251 91.5097 0.358656C89.9548 -0.155983 88.0545 0.265085 86.4997 0.343061C86.3269 0.343061 86.3897 0.608178 86.484 0.670558C87.8817 1.62186 89.5779 1.1696 91.2741 1.55948ZM1.97363 37.1007V20.6167H5.72721V34.1065H11.7266V37.1007H1.97363ZM14.161 37.1007V20.6167H17.8988V37.1007H14.161ZM30.5259 34.4028C32.1121 34.4028 33.4314 33.8726 34.4679 32.8277C35.5045 31.7828 36.0228 30.4728 36.0228 28.8977C36.0228 27.3382 35.5045 26.0282 34.4522 24.9522C33.4 23.8917 32.0964 23.3615 30.5259 23.3615C28.9397 23.3615 27.6204 23.8917 26.5682 24.9522C25.5159 26.0126 24.9976 27.3226 24.9976 28.8977C24.9976 30.4884 25.5159 31.7984 26.5368 32.8433C27.589 33.8882 28.9083 34.4028 30.5259 34.4028ZM39.8863 28.8977C39.8863 30.0829 39.6507 31.1902 39.1795 32.2351C38.7084 33.2799 38.0331 34.2157 37.1536 35.011C36.2426 35.8219 35.2218 36.4613 34.0753 36.898C32.9288 37.3347 31.7509 37.553 30.5259 37.553C29.4579 37.553 28.4057 37.3815 27.3848 37.0384C26.364 36.6953 25.4217 36.2118 24.5579 35.5724C23.4585 34.7459 22.6104 33.7634 22.0293 32.6094C21.4482 31.4553 21.1498 30.2233 21.1498 28.8977C21.1498 27.7125 21.3854 26.6052 21.8409 25.5604C22.312 24.5155 22.9874 23.5954 23.8826 22.7844C24.7621 21.9891 25.7829 21.3653 26.9451 20.913C28.1073 20.4764 29.3009 20.2424 30.5416 20.2424C31.7666 20.2424 32.9602 20.4608 34.1067 20.913C35.2689 21.3497 36.2898 21.9735 37.1693 22.7844C38.0488 23.5954 38.7398 24.5155 39.1952 25.5604C39.6507 26.6052 39.8863 27.7125 39.8863 28.8977ZM43.0431 37.1007V20.6167H46.938L54.7121 30.2077C54.932 30.4728 55.1833 30.8627 55.4503 31.3462C55.7172 31.8452 55.9999 32.4222 56.2826 33.0928C56.1884 32.6094 56.1256 32.1259 56.0942 31.6425C56.0471 31.159 56.0314 30.5664 56.0314 29.849V20.6323H59.6122V37.1163H55.9371L47.9588 27.3382C47.7389 27.0731 47.4877 26.6832 47.2207 26.1998C46.9537 25.7163 46.671 25.1237 46.3883 24.4375C46.4825 24.9054 46.5453 25.3888 46.5768 25.8723C46.6239 26.3557 46.6396 26.9639 46.6396 27.6969V37.1163H43.0431V37.1007Z" fill="var(--fill-0, #410F0B)"/>
<path id="Vector_2" d="M62.408 35.0111L64.4968 32.7966C64.7638 33.4048 65.1878 33.8883 65.7689 34.2314C66.35 34.5745 67.0096 34.7616 67.7321 34.7616C68.6116 34.7616 69.3026 34.5589 69.8209 34.169C70.3392 33.7791 70.5904 33.2489 70.5904 32.5939C70.5904 31.8141 69.7424 31.0344 68.0305 30.2702C67.4808 30.0207 67.041 29.8179 66.7269 29.662C65.1878 28.9134 64.1356 28.1805 63.5388 27.4631C62.942 26.7457 62.6436 25.888 62.6436 24.9055C62.6436 23.5487 63.2246 22.4259 64.3711 21.5525C65.5176 20.6792 67.0096 20.2425 68.8315 20.2425C69.8994 20.2425 70.8103 20.4141 71.5799 20.7728C72.3494 21.1159 73.0405 21.6617 73.6216 22.4103L71.4071 24.4064C71.1401 23.923 70.7946 23.5643 70.3549 23.3304C69.9151 23.0965 69.3968 22.9717 68.7843 22.9717C68.0462 22.9717 67.4494 23.1432 66.9782 23.5019C66.5228 23.845 66.3029 24.2973 66.3029 24.8587C66.3029 25.732 67.2138 26.5274 69.0199 27.2448C69.3811 27.3851 69.6481 27.4943 69.8523 27.5878C71.3443 28.2272 72.4437 28.9446 73.1504 29.7556C73.8729 30.5509 74.2184 31.471 74.2184 32.5003C74.2184 34.0442 73.653 35.2762 72.5379 36.1964C71.4228 37.1165 69.8994 37.5687 68.0148 37.5687C66.6798 37.5687 65.5176 37.3504 64.5596 36.9137C63.5859 36.4615 62.8791 35.8221 62.408 35.0111ZM10.1878 10.1213C9.66951 9.68465 9.13553 9.37275 8.58585 9.17001C8.03616 8.96728 7.45506 8.87371 6.82685 8.87371C5.55472 8.87371 4.53387 9.23239 3.76431 9.94977C3.01046 10.6671 2.63353 11.634 2.63353 12.8349C2.63353 14.0201 2.97905 14.9558 3.68579 15.6576C4.39253 16.3594 5.35055 16.7025 6.57557 16.7025C7.2666 16.7025 7.91052 16.5933 8.50732 16.375C9.10412 16.1566 9.65381 15.8291 10.1564 15.3925L10.1407 17.8565C9.59099 18.1528 9.02559 18.3867 8.42879 18.5271C7.83199 18.6674 7.20378 18.7454 6.54415 18.7454C4.62811 18.7454 3.05757 18.184 1.83256 17.0767C0.62325 15.9695 0.0107422 14.5503 0.0107422 12.8349C0.0107422 11.1194 0.62325 9.71584 1.84826 8.59299C3.07328 7.48574 4.65952 6.92432 6.59127 6.92432C7.23519 6.92432 7.8634 6.9867 8.47591 7.11146C9.08842 7.23622 9.68522 7.43896 10.2663 7.70407L10.1878 10.1213ZM18.7786 14.1605L17.4436 10.5268C17.4122 10.4176 17.3494 10.2305 17.3023 9.96536C17.2395 9.70025 17.1767 9.38834 17.1138 8.99847C17.051 9.35715 16.9725 9.68465 16.9097 9.98096C16.8468 10.2773 16.7997 10.4644 16.7683 10.558L15.4805 14.1449L18.7786 14.1605ZM11.1458 18.4491L15.7004 7.18943H18.6372L23.2703 18.4491H20.3491L19.3754 16.0631H14.7423L13.9099 18.4491H11.1458ZM24.5424 18.4491V7.18943H27.1966L32.505 13.7394C32.6621 13.9265 32.8192 14.1916 33.0076 14.5191C33.1961 14.8622 33.3845 15.2521 33.573 15.7044C33.5102 15.3769 33.4631 15.0338 33.4474 14.7063C33.416 14.3788 33.4003 13.9733 33.4003 13.4743V7.18943H35.8503V18.4491H33.3374L27.8877 11.7744C27.7306 11.5873 27.5736 11.3221 27.3851 10.9946C27.1966 10.6515 27.0082 10.2617 26.804 9.79382C26.8668 10.1213 26.914 10.4488 26.9297 10.7763C26.9611 11.1038 26.9768 11.5249 26.9768 12.0239V18.4491H24.5424ZM38.5359 18.4491V7.18943H41.2058L46.5142 13.7394C46.6712 13.9265 46.8283 14.1916 47.0168 14.5191C47.2052 14.8622 47.3937 15.2521 47.5822 15.7044C47.5193 15.3769 47.4722 15.0338 47.4565 14.7063C47.4251 14.3788 47.4094 13.9733 47.4094 13.4743V7.18943H49.8594V18.4491H47.3466L41.8968 11.7744C41.7398 11.5873 41.5827 11.3221 41.3943 10.9946C41.2215 10.6515 41.0173 10.2617 40.8289 9.79382C40.8917 10.1213 40.9388 10.4488 40.9545 10.7763C40.9859 11.1038 41.0016 11.5249 41.0016 12.0239V18.4491H38.5359ZM52.5136 18.4491V7.18943H59.581V9.2168H55.0893V11.5405H59.581V13.5834H55.0893V16.4061H59.581V18.4491H52.5136ZM61.3243 17.0144L62.7535 15.5016C62.9262 15.9227 63.2247 16.2502 63.6173 16.4841C64.0099 16.718 64.4654 16.8428 64.9679 16.8428C65.5647 16.8428 66.0359 16.7025 66.3971 16.4373C66.7426 16.1722 66.9154 15.8135 66.9154 15.3613C66.9154 14.831 66.3343 14.3008 65.1721 13.7706C64.7952 13.599 64.4968 13.4587 64.2769 13.3495C63.2247 12.8349 62.5022 12.3358 62.0939 11.8524C61.6855 11.3689 61.4814 10.7763 61.4814 10.1057C61.4814 9.17001 61.874 8.42145 62.6593 7.81324C63.4445 7.22062 64.4654 6.92432 65.7061 6.92432C66.4285 6.92432 67.0567 7.04908 67.5907 7.283C68.109 7.51693 68.5802 7.89121 68.9885 8.40585L67.4651 9.76263C67.2923 9.43513 67.041 9.18561 66.7426 9.02966C66.4442 8.87371 66.083 8.78013 65.659 8.78013C65.1564 8.78013 64.7481 8.9049 64.434 9.13882C64.1199 9.37275 63.9628 9.68465 63.9628 10.0589C63.9628 10.6515 64.5753 11.1974 65.816 11.6964C66.0673 11.79 66.2558 11.868 66.3814 11.9303C67.4023 12.367 68.1561 12.8661 68.643 13.4119C69.1298 13.9577 69.3811 14.5815 69.3811 15.2833C69.3811 16.3438 69.0042 17.1859 68.2346 17.8097C67.4651 18.4335 66.4442 18.7454 65.1407 18.7454C64.2298 18.7454 63.4288 18.5895 62.7849 18.2932C62.141 18.0124 61.6541 17.5758 61.3243 17.0144Z" fill="var(--fill-0, #410F0B)"/>
</g>
<defs>
<clipPath id="clip0_0_8">
<rect width="106" height="45.4286" fill="white"/>
</clipPath>
</defs>
</svg>
