<svg width="135" height="42" viewBox="0 0 135 42" fill="none" xmlns="http://www.w3.org/2000/svg">
<path fill-rule="evenodd" clip-rule="evenodd" d="M104.576 0.904297H112.923L119.3 13.3095L125.677 0.904297H133.909L123.126 21.8892V39.6273H115.011V21.1935L104.576 0.904297ZM129.802 34.9545H131.145C131.729 34.9545 132.379 35.1746 132.379 35.9242C132.379 36.7714 131.574 36.8496 130.836 36.8496H129.802V37.2115H131.067L132.533 39.4596H132.995L131.54 37.2244C132.234 37.1124 132.797 36.7287 132.797 35.9347C132.797 35.0529 132.312 34.5902 131.21 34.5902H129.382V39.4596H129.801L129.802 34.9545Z" fill="#552D1A"/>
<path fill-rule="evenodd" clip-rule="evenodd" d="M130.88 32.9065C131.422 32.9055 131.958 33.0114 132.458 33.2181C132.958 33.4248 133.413 33.7282 133.795 34.111C134.178 34.4937 134.482 34.9483 134.688 35.4485C134.895 35.9488 135.001 36.4849 135 37.0262C135.001 37.5674 134.895 38.1034 134.688 38.6035C134.481 39.1037 134.178 39.5581 133.795 39.9407C133.412 40.3232 132.958 40.6265 132.458 40.8331C131.957 41.0396 131.421 41.1454 130.88 41.1444C130.339 41.1453 129.803 41.0395 129.303 40.8328C128.803 40.6262 128.349 40.3229 127.966 39.9403C127.584 39.5577 127.28 39.1034 127.074 38.6033C126.867 38.1032 126.761 37.5673 126.762 37.0262C126.761 36.485 126.867 35.9489 127.073 35.4486C127.28 34.9484 127.583 34.4938 127.966 34.1111C128.348 33.7283 128.803 33.4249 129.303 33.2181C129.803 33.0114 130.339 32.9055 130.88 32.9065L130.892 33.27C128.766 33.27 127.18 34.899 127.18 37.0262C127.18 39.1075 128.789 40.7808 130.892 40.7808C132.996 40.7808 134.582 39.0962 134.582 37.0133C134.582 34.9103 133.007 33.27 130.892 33.27L130.88 32.9065ZM74.7803 0.904397H83.8235L92.8658 20.9615V0.904397H100.519V39.5121H92.1702L82.4314 17.3681V39.5121H74.7803V0.904397ZM55.5301 30.0047C55.5211 30.3763 55.5866 30.746 55.7227 31.092C55.8587 31.438 56.0626 31.7533 56.3223 32.0194C56.582 32.2854 56.8923 32.4968 57.2349 32.6411C57.5776 32.7855 57.9456 32.8598 58.3174 32.8598C58.6892 32.8598 59.0572 32.7855 59.3998 32.6411C59.7425 32.4968 60.0528 32.2854 60.3125 32.0194C60.5722 31.7533 60.7761 31.438 60.9121 31.092C61.0482 30.746 61.1137 30.3763 61.1047 30.0047V9.83147C61.1047 9.46543 61.0326 9.10298 60.8926 8.7648C60.7525 8.42663 60.5472 8.11935 60.2883 7.86052C60.0295 7.60169 59.7222 7.39638 59.3841 7.2563C59.0459 7.11622 58.6834 7.04413 58.3174 7.04413C57.9514 7.04413 57.5889 7.11622 57.2507 7.2563C56.9126 7.39638 56.6053 7.60169 56.3464 7.86052C56.0876 8.11935 55.8823 8.42663 55.7422 8.7648C55.6021 9.10298 55.5301 9.46543 55.5301 9.83147V30.0047ZM47.9056 30.9324V8.90451C47.9056 3.1549 52.567 0 58.3174 0C64.067 0 68.7292 3.1549 68.7292 8.90451V30.9324C68.7292 36.6836 64.0678 39.8369 58.3174 39.8369C52.567 39.8369 47.9056 36.6828 47.9056 30.9324ZM0 0.904397V39.5121H18.2024V32.6719H7.65109V22.5849H18.2024V15.7447H7.65109V7.04897H18.2024V0.904397H0ZM31.0719 15.7447C33.4481 15.7447 35.8244 15.6286 35.8244 13.4265V9.07781C35.8824 7.86067 35.2448 6.87566 33.4481 6.87566H31.0719V15.7447ZM31.0719 32.6719C33.4481 32.6719 35.8244 32.555 35.8244 30.3529V26.0042C35.8824 24.7871 35.0127 22.9912 32.5784 22.9912H31.0719V32.6719ZM23.4192 39.5121V0.904397H37.0996C39.3606 0.904397 43.4763 0.49814 43.4763 7.33834V13.0194C43.4763 14.1785 43.3602 18.0049 41.5055 18.7586C40.9251 18.9327 41.0992 19.4542 41.5635 19.5122C42.027 19.5703 43.4763 20.44 43.4763 22.9331V31.57C43.4763 33.889 43.3602 39.5129 35.8244 39.5129L23.4192 39.5121Z" fill="#552D1A"/>
</svg>
