<svg xmlns="http://www.w3.org/2000/svg" fill="none" viewBox="0 0 236 40.856" width="236" height="40.856" preserveAspectRatio="xMidYMid meet" overflow="visible" style="display:block">
<g id="Group">
<path id="Vector" fill-rule="evenodd" clip-rule="evenodd" d="M14.7386 0.164817C15.397 0.164817 16.2775 0.384299 17.158 1.26478C18.0372 1.92451 18.0372 3.24397 17.8165 4.34394C17.597 5.22315 17.3762 5.88289 16.2775 6.54261C15.1775 7.20234 14.0776 7.20234 14.0776 7.20234V11.3802L16.0568 13.1399L14.0776 14.6788V20.6177C14.0776 20.6177 16.0568 19.2982 17.3762 16.658L17.597 16.2178C17.597 17.097 17.597 18.4177 16.7165 20.3969C16.2763 21.7164 15.1775 23.0371 13.6373 23.9163C11.2179 25.2345 9.45821 25.2345 7.47903 25.015C5.0596 24.3553 2.85967 23.0371 1.54021 20.8372C0.44024 19.2982 0 17.3178 0 15.3386C0.220751 11.3789 3.07916 8.0803 6.37906 6.76084C6.8193 6.54135 7.03879 6.54135 7.69852 6.54135C7.47903 6.54135 7.03879 6.76084 6.59855 7.20108C5.49858 7.85954 4.61936 9.18027 4.17912 10.2802L10.7777 7.42057V16.658L5.49858 19.2982C6.15831 20.1774 7.91801 21.4981 9.45695 21.4981C12.3166 21.9371 13.8556 20.6189 13.8556 20.6189V14.6801L11.6556 13.1412L13.8556 11.3815V7.2036C12.7419 6.96562 11.641 6.67176 10.5569 6.32312C9.23746 6.10363 5.27783 5.00367 4.83759 5.00367C4.17786 4.78418 3.29738 4.78417 2.8584 5.22441C2.41943 5.66465 2.19994 6.32439 2.41816 6.98411C2.41816 7.42435 2.63892 7.64384 2.8584 7.86333C2.8584 7.86333 2.63892 7.86334 2.19994 7.64385C1.54021 7.20361 0.879218 6.32438 0.879218 5.22441C0.879218 3.90495 1.31946 2.58424 2.64018 1.70503C3.51939 1.0453 4.61936 0.60505 5.93882 0.825801C7.91801 1.04529 10.5582 2.14526 12.9776 2.80499C13.8568 3.02448 14.5166 3.02448 15.1775 2.58424C15.397 2.36475 16.0568 1.92577 15.6178 1.26478C14.9581 0.38556 14.0776 0.385568 13.1984 0.164817C13.8581 -0.0546716 14.0788 -0.0546716 14.7386 0.164817ZM6.82056 18.4203V9.40228L4.18165 10.7217C4.18165 10.7217 3.52192 12.2607 3.52192 14.4606C3.74141 16.2203 4.62189 18.1995 5.28161 19.08L6.82056 18.4203ZM40.251 8.9633C40.251 8.9633 38.0511 10.2828 36.7316 11.1632L33.6525 12.7034V21.2799L32.333 22.1617L32.5525 22.3812L33.6525 21.5019L37.3914 24.8006L43.9899 19.7422L43.7692 19.5215L40.2498 22.3812L37.1706 19.5215V18.6423L43.1094 14.2436L40.251 8.9633ZM40.251 16.0008L37.1719 18.2008V10.9425L40.251 16.0008ZM23.3163 28.098C24.1955 28.098 25.515 28.3174 27.4942 27.4382C29.4734 26.3395 30.3538 24.3591 30.3538 22.1604L30.5733 19.08V12.2619L31.6733 11.3827V11.1632L30.3538 12.0425L27.4942 8.9633L23.7553 12.0425V1.26605L19.1359 4.78543C19.3554 5.00492 20.0164 5.00493 20.0164 6.1049V21.2799L18.0372 22.5994L18.2567 22.8189L19.1372 22.1617L21.7761 24.5811L25.9552 21.2799L25.7345 21.0604L24.8553 21.9397L23.7553 20.8409V12.4827L24.8553 11.3827L26.8344 13.5827V20.8409C26.8344 22.8189 26.8344 25.2383 25.7345 26.3395C24.6358 27.6565 24.415 27.6565 23.3163 28.098ZM52.1287 27.2187C50.369 26.9993 49.7092 26.12 49.7092 25.2383C49.7092 24.7993 50.369 23.6981 51.2494 23.6981C52.3494 23.4786 53.2286 23.9201 54.1091 25.0188L58.0675 20.6214H57.848L56.748 21.7202C55.8688 20.6215 54.3299 19.741 52.7897 19.5202V6.54388L62.6868 24.7993C62.6868 24.7993 62.9063 25.0188 63.3466 25.0188C63.5661 25.0188 63.5661 24.7993 63.5661 24.7993V6.54388C64.4465 6.32439 65.5453 5.88414 66.205 5.44391C68.1842 3.46472 67.3049 1.26604 67.0855 1.04529C67.0855 1.92577 66.205 2.80499 65.1063 3.02448C63.5661 3.02448 62.4674 1.70503 62.4674 1.70503L58.7285 6.10364L58.9492 6.32312L60.0492 5.00367C61.3687 6.32312 62.2491 6.32313 63.3478 6.54388V17.1008L55.8701 3.68421C55.2103 2.58424 54.3311 1.48553 52.5714 1.48553C50.8117 1.48553 49.4923 3.02448 49.2728 4.56343C49.0533 6.10364 49.2728 6.54261 49.2728 6.54261C49.2728 6.54261 49.4923 4.78291 50.5922 4.78291C51.6922 4.78291 52.1324 5.66213 52.5714 6.32186V10.2815C51.4715 10.2815 48.8325 10.2815 48.8325 13.1412C48.8325 14.0204 49.4923 15.1203 49.9325 15.5606C50.5922 16.0008 51.252 16.0008 51.252 16.0008C51.252 16.0008 50.3715 15.5606 50.5922 14.6814C50.813 13.8021 52.5714 13.8022 52.5714 14.0216V19.5202C51.6922 19.5202 49.2728 19.5202 47.9521 21.7202C47.2923 23.0409 47.2923 24.5811 48.1716 25.6798C48.8288 26.5577 49.9287 27.6565 52.1287 27.2187ZM73.2425 8.9633C73.2425 8.9633 71.2633 10.2828 69.7231 11.1632L66.644 12.7034V21.2799L65.3245 22.1617L65.544 22.3812L66.8634 21.5019L70.3828 24.8006L76.9801 19.7422L76.7606 19.5215L73.2412 22.3812L70.3816 19.5215V18.6423L76.0997 14.2436L73.2425 8.9633ZM73.2425 16.0008L70.3828 18.2008V10.9425L73.2425 16.0008ZM82.2605 24.7993L78.9606 22.1604L77.6411 23.2591L77.4204 23.0396L78.9606 21.9384V14.6814C78.9606 11.6022 76.1009 12.4827 76.3217 9.18278C76.3217 7.86333 77.6411 6.76336 78.5203 6.32312C79.1801 6.10363 80.0605 6.10364 80.0605 6.10364C80.0605 6.10364 78.7411 6.76337 78.9606 8.08282C79.4008 9.84252 82.48 9.84252 82.6995 12.2607V20.6189L84.8994 22.3786L85.5591 21.9371V12.9204L84.2397 11.8204L87.3188 8.96078L90.1785 11.5997L89.0785 12.6997V20.6177L91.9382 22.8151L92.3784 22.5956V12.9192L91.059 11.8192L94.1381 8.95952L97.216 11.3789L98.316 10.279L98.5355 10.4985L95.8966 12.9179V20.6164L89.0785 24.7943L85.5591 22.1554L82.2605 24.7993ZM220.824 8.9633C220.824 8.9633 218.624 10.2828 217.306 11.1632L214.226 12.7034V21.2799L212.906 22.1617L213.128 22.3812L214.226 21.5019L217.964 24.8006L224.564 19.7422L224.342 19.5215L220.824 22.3812L217.745 19.5215V18.6423L223.685 14.2436L220.824 8.9633ZM220.824 16.0008L217.745 18.2008V10.9425L220.824 16.0008ZM190.472 12.7022H190.692L191.791 11.8217L193.55 13.8009V20.8397L192.67 21.5007L195.531 24.7993L198.388 21.9384L197.289 20.6202V12.2619L197.95 11.6022L199.928 14.0216V21.0592L199.268 21.7189L201.909 24.5798L204.767 21.9384L203.668 20.8397V12.2619L204.328 11.6022L206.527 14.0216V20.8397L205.868 21.5007L208.727 24.7993L212.685 21.0592L212.467 20.8397L211.586 21.7189L210.047 20.1799V12.2619L211.366 11.162V10.9425L209.825 12.0412L207.186 9.18278L203.449 12.0412L200.807 9.18278L197.071 12.0412L194.432 9.18278L190.472 12.7022Z" fill="var(--fill-0, #410F0B)"/>
<path id="Vector_2" fill-rule="evenodd" clip-rule="evenodd" d="M182.555 12.4825L183.653 11.602L185.194 13.5812V21.5004L184.094 22.5991L184.313 22.8174L185.412 21.7187L188.053 24.7991L191.791 21.5004L191.571 21.2784L190.473 22.1602L188.933 20.3992V12.4825L190.251 11.3825V11.1617L188.933 12.2617L186.292 9.18256L182.555 12.4825ZM183.653 5.66317L186.292 3.24374L188.712 5.66317L185.853 8.30334L183.653 5.66317Z" fill="var(--fill-0, #410F0B)"/>
<path id="Vector_3" fill-rule="evenodd" clip-rule="evenodd" d="M179.693 0.164617C180.353 0.164617 181.453 0.384098 182.332 1.26458C182.992 1.92431 183.214 3.24377 182.992 4.34373C182.773 5.22295 182.332 5.88269 181.452 6.54241C180.353 7.20214 179.254 7.20214 179.254 7.20214V11.38L181.232 13.1397L179.254 14.6786V20.6175C179.254 20.6175 181.232 19.298 182.553 16.6578L182.773 16.2176C182.773 17.0968 182.773 18.4175 181.893 20.3967C181.452 21.7162 180.134 23.0369 178.814 23.9161C176.395 25.2343 174.417 25.2343 172.435 25.0148C170.238 24.3551 168.038 23.0369 166.717 20.837C165.618 19.298 165.177 17.3176 165.177 15.3384C165.177 11.3787 168.256 8.0801 171.556 6.76064C171.997 6.54115 172.216 6.54115 172.877 6.54115C172.435 6.54115 172.217 6.76064 171.775 7.20088C170.677 7.85934 169.797 9.18006 169.356 10.28L175.956 7.42037V16.6578L170.675 19.298C171.335 20.1772 173.095 21.4979 174.635 21.4979C177.274 21.9369 178.813 20.6187 178.813 20.6187V14.6799L176.835 13.141L178.813 11.3813V7.2034C177.714 6.98265 176.394 6.54367 175.514 6.32292C174.416 6.10343 170.456 5.00347 169.796 5.00347C169.355 4.78398 168.476 4.78397 168.037 5.22421C167.595 5.66445 167.377 6.32418 167.377 6.98391C167.596 7.42415 167.818 7.64364 168.037 7.86313C168.037 7.86313 167.817 7.86313 167.377 7.64365C166.717 7.20341 166.056 6.32418 166.056 5.22421C165.837 3.90475 166.498 2.58404 167.596 1.70483C168.698 1.0451 169.796 0.604849 171.117 0.8256C173.095 1.04509 175.734 2.14506 177.934 2.80479C179.032 3.02428 179.693 3.02428 180.353 2.58404C180.573 2.36455 181.013 1.92557 180.573 1.26458C180.134 0.38536 179.254 0.385367 178.375 0.164617C179.034 -0.0548723 179.256 -0.0548723 179.693 0.164617ZM171.997 18.4201V9.40208L169.356 10.7215C169.356 10.7215 168.477 12.2605 168.699 14.4604C168.699 16.2201 169.798 18.1993 170.458 19.0798L171.997 18.4201ZM227.862 25.8978C227.421 26.1198 225.663 25.6783 225.221 23.6979C224.782 21.72 226.103 20.6213 228.082 18.4201L225.663 16.4409V12.2617C225.663 12.2617 227.422 11.602 228.742 10.7228L231.381 8.9631C231.381 8.9631 232.479 10.2826 233.581 10.0631C235.34 9.84232 235.34 8.52286 235.121 8.30337C235.56 8.74361 236.219 10.2826 233.14 14.0214L235.782 16.0006V21.2785C235.782 21.2785 232.703 22.8187 230.061 24.7991C230.061 24.7991 228.523 22.8187 227.203 23.6979C226.103 24.3576 226.542 25.4588 227.862 25.8978ZM225.663 21.9382C225.663 21.9382 226.983 19.7395 229.403 20.1785C231.6 20.62 232.261 22.8174 232.261 22.8174V17.5408L230.721 16.2214C229.181 17.9798 226.103 20.3992 225.663 21.9382ZM229.181 10.7228V14.9019L230.501 16.2214C230.501 16.2214 233.581 13.802 234.679 11.3825C234.679 11.3825 233.361 13.3617 231.381 12.702C229.84 12.2617 229.181 10.7228 229.181 10.7228ZM133.067 12.4825L134.166 11.602H134.385L133.287 12.702V21.059C133.287 21.059 131.087 22.1602 129.768 23.0394L126.689 24.7991L122.73 21.5005L121.85 22.3797H121.631L122.73 21.2785V12.2617C122.73 12.2617 124.489 11.602 126.028 10.7228C127.349 9.84231 128.887 8.9631 128.887 8.9631L133.067 12.4825ZM126.47 19.9603L129.546 22.8187V13.8019L126.47 10.9423V19.9603ZM140.764 11.602L143.184 9.18258C143.184 9.18258 143.403 9.40208 143.844 9.62283C144.063 9.84232 144.723 10.0631 145.384 9.84232C145.823 9.62283 145.823 9.40207 146.263 9.18258C146.263 11.1618 145.384 12.4825 144.283 12.9215C143.625 13.141 142.305 13.5812 140.764 11.8215V20.8395L142.524 22.1602L143.625 21.2785H143.845L139.885 24.7991L136.806 21.9382L135.707 23.0394L135.488 22.8174L137.028 21.2772V13.5799L135.927 11.8202L134.828 12.7007H134.609L138.568 9.18132L140.764 11.602ZM151.102 15.5617L155.499 8.9631C155.499 8.9631 156.159 9.62283 157.26 9.84232C158.578 10.2826 159.899 8.9631 159.899 8.9631C159.68 10.7228 158.8 12.702 156.82 12.9227C155.28 13.1422 153.741 11.8228 153.741 11.8228L153.521 12.4825L159.681 21.9395L160.999 20.8407L161.219 21.0602L156.821 24.8004L151.102 15.5617Z" fill="var(--fill-0, #410F0B)"/>
<path id="Vector_4" fill-rule="evenodd" clip-rule="evenodd" d="M147.362 6.76323C147.362 5.22428 146.702 4.34506 145.822 4.34506L150.882 1.04516V20.6213L152.201 21.9395L153.08 21.0603L153.302 21.2798L149.342 24.8004L146.701 22.1615L145.602 23.2602L145.383 23.0407L147.361 21.2798L147.362 6.76323ZM106.013 6.32299C106.013 5.00353 105.354 4.3438 104.473 4.3438C103.154 4.12305 102.934 6.1035 102.934 6.1035C102.934 6.1035 102.715 4.56329 103.813 3.46458C104.473 2.80486 105.793 1.70489 107.552 2.14513C109.531 2.58537 110.191 4.12431 110.191 5.44377V23.6979C110.191 23.6979 110.851 23.92 111.291 23.92C111.951 24.1395 112.391 24.1394 112.391 24.1394V2.14387H112.611V5.22302L116.57 1.92437L119.649 4.56329L120.97 3.46332H121.19L119.649 4.78278V21.7175C119.649 22.8162 119.43 23.9174 118.33 24.5784C116.13 26.1186 113.272 24.3564 110.631 24.1369C108.872 23.6954 106.013 23.4772 105.134 25.2356C104.915 25.6771 104.915 26.5564 105.794 27.2161C107.554 28.3148 115.031 25.2356 117.67 26.5564C120.091 27.6551 120.091 29.1953 119.649 30.516C118.99 32.7159 116.13 33.1549 116.13 33.1549C116.13 33.1549 117.669 32.2757 117.23 30.9575C117.01 30.2978 116.57 30.0758 115.03 30.2978C111.731 30.7367 107.993 32.2757 105.354 31.177C104.034 30.5173 102.934 28.977 103.154 27.2173C103.154 24.7979 106.013 23.9187 106.013 23.9187V15.1202C105.794 14.9007 104.473 14.9007 104.034 15.5604C103.594 16.6604 104.694 17.0994 104.694 17.0994C104.694 17.0994 103.813 17.0994 102.934 16.2202C102.715 15.7799 101.834 14.4605 102.934 12.9215C103.594 11.8216 104.694 11.6021 106.013 11.6021V6.32299ZM112.612 24.3577C112.612 24.3577 113.931 24.5797 114.591 23.9187C115.691 23.0395 115.47 22.159 115.47 22.159V15.3397C115.47 15.3397 115.03 14.4592 114.151 14.4592C113.272 14.4592 112.611 15.3397 112.611 15.3397L112.612 24.3577ZM115.472 6.32299L113.712 4.78404L112.612 5.44377V11.8228C112.612 11.8228 113.272 12.4826 114.152 12.4826C115.033 12.4826 115.472 11.8228 115.472 11.8228V6.32299ZM115.472 12.2618C115.472 12.2618 115.031 12.702 114.152 12.702C113.273 12.702 112.612 12.2618 112.612 12.2618V14.902C112.612 14.902 113.272 14.2423 114.152 14.2423C115.033 14.2423 115.472 14.902 115.472 14.902V12.2618ZM143.184 30.9587C143.184 29.4185 143.184 29.4185 142.524 29.1978H142.305V28.9783H148.024C148.024 29.1978 148.244 30.077 148.244 30.5185C148.244 30.738 148.024 30.738 147.805 30.738C147.585 30.0783 147.585 29.6393 146.925 29.4198H144.725C144.284 29.4198 144.284 29.4198 144.284 29.8588V32.4977C144.284 32.7197 144.284 32.7197 144.725 32.7197H146.703C146.703 32.7197 146.925 32.4977 146.925 32.2782V31.8392C147.145 31.6172 147.364 31.6172 147.364 31.8392V34.2587C147.364 34.4781 147.145 34.4781 146.925 34.2587V33.8171C146.925 33.5977 146.703 33.3756 146.484 33.3756C146.264 33.3756 146.045 33.1562 145.605 33.1562H144.725C144.284 33.1562 144.284 33.3757 144.284 33.5977V35.3574C144.284 36.2366 144.284 36.6781 144.506 36.8976C144.725 36.8976 144.945 37.1171 146.046 37.1171C147.145 37.1171 147.586 37.1171 147.806 36.8976C148.025 36.6781 148.245 36.2378 148.685 35.5769C148.685 35.5769 148.905 35.5768 148.905 35.7963C148.905 36.2378 148.685 37.1171 148.466 37.5573H142.086V37.1158H142.525C143.185 37.1158 143.185 36.8963 143.185 35.5756L143.184 30.9587ZM150.223 33.1562C150.003 32.9367 149.781 32.7172 149.344 32.7172H149.122V32.2757H151.541V32.7172H151.321C150.882 32.7172 150.882 32.9367 151.102 33.1562L151.762 34.0354C151.762 34.2574 151.981 34.2574 151.981 34.2574C151.981 34.2574 152.423 33.5977 152.641 33.1562C152.86 32.9367 152.86 32.7172 152.641 32.7172H152.421V32.2757H154.399V32.7172H154.18C153.96 32.7172 153.738 32.7172 153.52 32.9367C153.302 33.1562 152.86 33.8159 152.421 34.4769C152.199 34.6964 152.199 34.6964 152.421 34.9159L153.52 36.6768C153.74 37.1158 153.962 37.1158 154.399 37.1158H154.619V37.5573H151.98V37.1158H152.421C152.86 37.1158 152.86 37.1158 152.641 36.8963L151.981 35.7951C151.762 35.5756 151.762 35.5756 151.762 35.3561C151.54 35.5756 151.54 35.5756 151.54 35.7951L150.882 36.6768C150.66 37.1158 150.66 37.1158 150.882 37.1158H151.102C151.321 37.3353 151.321 37.5573 151.102 37.5573H149.344C149.122 37.5573 149.122 37.3353 149.122 37.1158H149.563C149.782 37.1158 150.005 37.1158 150.223 36.6768C150.442 36.4548 151.102 35.5756 151.321 35.3561C151.321 35.1366 151.541 35.1366 151.321 34.9146L150.223 33.1562ZM156.602 34.0354C156.602 33.5964 156.602 33.3757 156.821 33.1562C157.041 32.9367 157.263 32.7172 157.92 32.7172C159.021 32.7172 159.681 33.8159 159.681 34.9146C159.681 36.2353 159.021 37.334 157.92 37.334C157.701 37.334 157.263 37.1145 157.041 36.895C156.821 36.6756 156.602 36.6756 156.602 36.2353V34.0354ZM155.721 39.3157C155.721 40.1949 155.721 40.4144 155.28 40.4144L154.841 40.6339C154.841 40.6339 154.841 40.8559 155.06 40.8559H157.699V40.6339L157.04 40.4144C156.601 40.4144 156.601 40.1949 156.601 39.3157V37.995C156.601 37.7755 156.82 37.556 156.82 37.556C157.04 37.556 157.262 37.7755 157.48 37.7755C159.458 37.7755 160.778 36.4548 160.778 34.4769C160.778 33.1562 159.899 32.2769 158.578 32.2769C157.699 32.2769 156.819 32.7184 156.819 32.7184H156.599V32.0587C156.158 32.2782 155.498 32.4977 155.279 32.7184V32.9379C155.72 33.1574 155.72 33.1574 155.72 33.8171L155.721 39.3157ZM162.758 33.8159H162.538C162.538 33.3744 163.198 32.4952 164.078 32.4952C164.738 32.4952 164.958 32.9367 164.958 33.3744V33.5964C164.738 33.8159 164.516 33.8159 163.637 33.8159H162.758ZM165.177 34.2574C165.618 34.2574 165.837 34.2574 165.837 34.0354C166.056 34.0354 166.056 34.0354 166.056 33.8159C166.056 32.9367 165.177 32.2757 164.078 32.2757C162.538 32.2757 161.659 33.5964 161.659 35.1366C161.659 35.7938 161.659 36.2353 162.1 36.8963C162.539 37.3353 163.199 37.7755 164.078 37.7755C164.738 37.7755 165.619 37.334 166.056 36.4548L165.837 36.2353C165.398 36.8951 164.958 36.895 164.516 36.895C163.198 36.895 162.538 35.7938 162.538 34.4756C162.538 34.2561 162.538 34.2561 162.758 34.2561L165.177 34.2574ZM170.896 32.4952C171.118 32.4952 171.118 32.7172 171.118 32.9367C171.118 33.1562 170.896 33.3756 170.896 33.3756H170.677C170.457 32.9367 169.798 32.7184 169.356 32.7184C168.477 32.7184 167.596 33.3757 167.596 34.6964C167.596 35.7951 168.256 36.8963 169.577 36.8963C170.456 36.8963 170.895 36.6768 171.117 36.2366C171.117 36.2366 171.337 36.2366 171.337 36.4561C170.895 37.3353 170.016 37.7768 169.137 37.7768C168.477 37.7768 167.818 37.5573 167.377 37.1171C166.935 36.6781 166.717 36.0184 166.717 35.1391C166.717 33.5989 167.596 32.2782 169.796 32.2782C170.016 32.2757 170.677 32.2757 170.896 32.4952ZM173.756 32.9367C173.537 32.9367 173.537 32.9367 173.537 33.1562V35.5756C173.537 36.4548 173.537 37.1158 174.416 37.1158H174.635C174.855 37.1158 175.077 36.8963 175.077 36.8963C175.077 36.8963 175.296 37.1158 175.077 37.1158C174.855 37.3353 174.417 37.7755 173.756 37.7755C172.657 37.7755 172.435 37.1158 172.435 36.2353V33.3744C172.435 32.9354 172.435 32.9354 172.216 32.9354H171.774V32.7159C172.216 32.4939 172.434 32.2744 172.656 32.2744C172.876 32.0549 173.095 31.8354 173.095 31.3952C173.315 31.3952 173.315 31.3952 173.537 31.6147V32.0562C173.537 32.2757 173.537 32.2757 173.756 32.2757H175.077C175.296 32.4952 175.296 32.9354 175.077 32.9354L173.756 32.9367ZM180.795 32.9367C180.573 32.9367 180.573 32.9367 180.573 33.1562V35.5756C180.573 36.4548 180.573 37.1158 181.452 37.1158H181.894L182.113 36.8963C182.332 36.8963 182.332 37.1158 182.332 37.1158C182.113 37.3353 181.675 37.7755 181.014 37.7755C179.916 37.7755 179.694 37.1158 179.694 36.2353V33.3744C179.694 32.9354 179.694 32.9354 179.474 32.9354H179.033C179.033 32.9354 178.813 32.7159 179.033 32.7159C179.255 32.4939 179.692 32.2744 179.692 32.2744C179.914 32.0549 180.134 31.8354 180.352 31.3952C180.352 31.3952 180.572 31.3952 180.572 31.6147V32.0562C180.572 32.2757 180.572 32.2757 180.794 32.2757H182.331V32.9354L180.795 32.9367ZM183.653 30.0757C183.653 29.4185 183.653 29.4185 183.214 29.1965L182.992 28.977V28.7576C183.434 28.7576 183.871 28.5381 184.532 28.3161V32.9367C184.974 32.4952 185.634 32.2769 186.292 32.2769C187.613 32.2769 188.053 32.9367 188.053 33.8171V36.0171C188.053 36.8963 188.053 37.1158 188.492 37.1158H188.712C188.934 37.3353 188.934 37.5573 188.712 37.5573H186.292V37.1158H186.514C186.953 37.1158 186.953 36.8963 186.953 36.0171V34.2574C186.953 33.3757 186.734 32.7172 185.854 32.7172C185.413 32.7172 184.975 32.9367 184.753 33.1562C184.534 33.3757 184.534 33.3756 184.534 33.8159V36.0158C184.534 36.895 184.534 37.1145 184.975 37.1145H185.195C185.414 37.334 185.414 37.556 185.195 37.556H182.775V37.1145H182.995C183.654 37.1145 183.654 36.895 183.654 36.0158V30.0757H183.653ZM190.692 33.8159H190.472C190.472 33.3744 191.13 32.4952 192.01 32.4952C192.67 32.4952 192.892 32.9367 192.892 33.3744V33.5964C192.67 33.8159 192.45 33.8159 191.571 33.8159H190.692ZM193.111 34.2574C193.55 34.2574 193.771 34.2574 193.771 34.0354C193.991 34.0354 193.991 34.0354 193.991 33.8159C193.991 32.9367 193.111 32.2757 192.01 32.2757C190.472 32.2757 189.591 33.5964 189.591 35.1366C189.591 35.7938 189.591 36.2353 190.032 36.8963C190.474 37.3353 191.131 37.7755 192.01 37.7755C192.67 37.7755 193.55 37.334 193.991 36.4548L193.771 36.2353C193.33 36.8951 192.892 36.895 192.45 36.895C191.13 36.895 190.472 35.7938 190.472 34.4756C190.472 34.2561 190.472 34.2561 190.692 34.2561L193.111 34.2574ZM197.071 29.1965V28.977H199.929C200.149 28.977 200.149 29.1965 199.929 29.1965H199.71C199.49 29.1965 199.268 29.4185 199.268 29.4185C199.268 29.638 199.49 30.2978 199.928 31.1782C200.588 32.7184 201.468 34.4769 202.128 36.0171C202.567 35.3574 202.788 34.6964 203.227 34.0366C203.227 33.5977 203.449 33.3769 203.449 33.3769L203.227 33.1574L201.909 29.8588C201.687 29.6393 201.467 29.1991 201.029 29.1991H200.807C200.588 29.1991 200.588 28.9796 200.807 28.9796H203.449C203.668 28.9796 203.668 29.1991 203.449 29.1991H203.227C202.788 29.1991 202.788 29.4211 203.007 29.8588C203.227 30.5185 203.667 31.399 203.887 32.2782C204.106 31.6185 204.328 31.1795 204.766 30.5185C205.207 29.4198 204.985 29.1978 204.766 29.1978H204.327C204.105 28.9783 204.327 28.9783 204.327 28.9783H206.746C206.746 28.9783 206.966 29.1978 206.746 29.1978H206.305C205.866 29.1978 205.645 29.8575 205.426 30.299C204.984 30.9588 204.546 32.0587 204.327 32.4964V33.1574C204.766 34.0366 205.206 35.1379 205.645 36.0184C206.086 35.1391 206.305 34.2587 206.746 33.3769C206.966 32.7197 207.845 30.96 207.845 30.738C208.064 30.299 208.286 29.6393 208.286 29.4198C208.286 29.4198 208.064 29.1978 207.845 29.1978H207.403V28.9783H209.823C210.045 28.9783 210.045 29.1978 209.823 29.1978H209.603C208.944 29.1978 208.944 29.6393 208.063 31.3977L207.184 33.5977C206.524 34.9159 206.085 36.2366 205.644 37.7755H205.205C204.769 36.4983 204.255 35.2492 203.665 34.0354C203.223 34.9146 202.344 36.6768 202.124 37.7755H201.683C201.463 37.1158 201.026 36.0158 200.804 35.5756C199.924 33.8159 199.263 32.0575 198.384 30.077C198.165 29.638 197.945 29.1978 197.505 29.1978L197.071 29.1965ZM213.127 35.1366C213.127 36.0158 212.905 37.334 211.806 37.334C210.485 37.334 210.046 36.0158 210.046 34.9146C210.046 33.3744 210.706 32.4952 211.586 32.4952C212.685 32.4952 213.127 34.0354 213.127 35.1366ZM211.586 32.2757C210.266 32.2757 208.945 33.3744 208.945 34.9146C208.945 36.6756 210.046 37.7755 211.586 37.7755C213.127 37.7755 214.225 36.4548 214.225 34.9146C214.225 33.3744 213.127 32.2757 211.586 32.2757ZM215.985 33.8159C215.985 33.1562 215.985 33.1562 215.765 32.9367H215.546V32.7172C215.765 32.4952 216.645 32.2757 216.864 32.0575V32.9367H217.084C217.525 32.4952 217.963 32.2769 218.404 32.2769C218.846 32.2769 219.064 32.4964 219.064 32.7184C219.064 33.1574 218.623 33.3756 218.404 33.3756C218.404 33.3756 218.185 33.3757 218.185 33.1562C217.963 33.1562 217.743 32.9367 217.525 32.9367C217.307 32.9367 217.306 33.1562 217.084 33.3756C217.084 33.3756 216.864 33.8172 216.864 34.2574V36.0171C216.864 36.8963 217.084 37.1158 217.524 37.1158H217.963V37.5573H215.324C215.104 37.5573 215.104 37.3353 215.324 37.1158H215.546C215.985 37.1158 215.985 36.8963 215.985 36.0171V33.8159ZM221.042 36.0158C221.042 36.895 221.042 37.1145 221.484 37.1145H221.922V37.556H219.284V37.1145H219.725C220.164 37.1145 220.164 36.895 220.164 36.0158V30.0757C220.164 29.4185 220.164 29.4185 219.725 29.1965V28.977C219.503 28.977 219.503 28.7576 219.725 28.7576C219.945 28.7576 220.604 28.5381 221.043 28.3161V36.0158H221.042ZM226.761 36.2353C226.761 36.4548 226.761 36.6768 226.542 36.6768C226.322 36.8963 225.882 37.1158 225.663 37.1158C224.342 37.1158 223.685 36.0171 223.685 34.6964C223.685 33.5977 224.342 32.4964 225.444 32.4964C225.883 32.4964 226.324 32.9379 226.543 33.1562C226.543 33.3757 226.763 33.3757 226.763 33.5977L226.761 36.2353ZM227.641 29.8575V28.3173C226.983 28.5393 226.542 28.7588 226.103 28.7588V28.9783L226.322 29.1978C226.761 29.4198 226.761 29.4198 226.761 30.077V32.0575C226.761 32.2769 226.761 32.2769 226.542 32.2769H225.663C223.903 32.2769 222.583 33.3757 222.583 35.1379C222.583 36.4561 223.685 37.7768 225.003 37.7768C225.663 37.7768 226.104 37.5573 226.543 37.1171H226.763V37.7781C227.204 37.7781 228.083 37.5586 228.524 37.3365C228.743 37.3365 228.743 37.1171 228.524 36.8976C228.302 37.1171 228.082 37.1171 228.082 37.1171C227.641 37.1171 227.641 36.6781 227.641 35.5769V29.8575ZM232.04 29.4185C232.04 29.4185 232.04 29.1965 232.26 29.1965C232.92 29.1965 233.139 29.638 233.139 30.0757C233.139 30.5172 232.92 30.9575 232.479 30.9575C232.04 30.9575 232.04 30.9575 232.04 30.7355V29.4185ZM231.381 31.838C231.381 32.4952 231.381 32.4952 231.161 32.4952L230.942 32.7172H232.478C232.7 32.7172 232.7 32.7172 232.478 32.7172L232.259 32.4952C232.039 32.4952 232.039 32.4952 232.039 31.838V31.3965C232.039 31.177 232.039 31.177 232.259 31.177H232.478C232.7 31.616 232.92 31.8367 233.138 32.0562C233.36 32.7159 233.798 32.9354 234.239 32.9354C234.239 32.9354 234.459 32.9354 234.459 32.7159C234.459 32.7159 234.239 32.7159 234.239 32.4939C233.798 32.2744 233.579 31.8367 233.138 31.1757V30.9562C233.36 30.7342 233.798 30.5147 233.798 30.0745C233.798 29.1953 232.918 28.9758 232.477 28.9758H230.939V29.1953H231.159C231.378 29.1953 231.378 29.4173 231.378 30.0745V31.838H231.381ZM232.479 34.2574C234.46 34.2574 236 32.7172 236 30.9587C236 28.9783 234.46 27.6576 232.479 27.6576C230.501 27.6576 229.181 28.9783 229.181 30.9587C229.181 32.7172 230.5 34.2574 232.479 34.2574ZM229.621 30.9587C229.621 29.1978 230.942 27.8796 232.479 27.8796C234.24 27.8796 235.34 29.1978 235.34 30.9587C235.34 32.4964 234.242 33.8171 232.479 33.8171C230.942 33.8159 229.621 32.4952 229.621 30.9587Z" fill="var(--fill-0, #410F0B)"/>
</g>
</svg>
