<svg width="105" height="27" viewBox="0 0 105 27" fill="none" xmlns="http://www.w3.org/2000/svg">
<path d="M104.104 0V5.36276H96.2832V26.4414H89.7288V5.36276H81.9453V0H104.104Z" fill="#552D1A"/>
<path d="M57.5488 0H64.4012L73.935 16.5352V0H80.4895V26.4414H73.4137L64.1033 10.6138V26.4414H57.5488V0Z" fill="#552D1A"/>
<path d="M47.8457 0H54.4002V26.4414H47.8457V0Z" fill="#552D1A"/>
<path d="M35.5175 0C40.9548 0 45.2375 2.75586 45.2375 7.93241C45.2375 11.3214 43.3754 13.5186 40.3961 14.3752C43.301 14.6731 44.6044 16.0883 44.8279 18.9559L45.461 26.4414H38.8692L38.4223 20.0731C38.2734 17.8759 37.1561 17.131 34.363 17.131H29.9685V26.4414H23.4141V0H35.5175ZM29.9685 11.7683H34.4375C37.0816 11.7683 38.5341 10.651 38.5341 8.56552C38.5341 6.48 37.0816 5.36276 34.4375 5.36276H29.9685V11.7683Z" fill="#552D1A"/>
<path d="M10.949 0C17.3545 0 21.4138 3.42621 21.4138 8.86345C21.4138 14.2634 17.3545 17.7269 10.949 17.7269H6.55448V26.4414H0V0H10.949ZM6.55448 12.3641H10.5021C13.109 12.3641 14.7103 11.1724 14.7103 8.86345C14.7103 6.55448 13.1462 5.36276 10.5021 5.36276H6.55448V12.3641Z" fill="#552D1A"/>
</svg>
